<?xml version="1.0" encoding="utf-8"?>
<!-- Generator: Adobe Illustrator 12.0.0, SVG Export Plug-In . SVG Version: 6.00 Build 51448)  -->
<!DOCTYPE svg PUBLIC "-//W3C//DTD SVG 1.1//EN" "http://www.w3.org/Graphics/SVG/1.1/DTD/svg11.dtd" [
	<!ENTITY ns_svg "http://www.w3.org/2000/svg">
	<!ENTITY ns_xlink "http://www.w3.org/1999/xlink">
]>
<svg  version="1.1" id="Layer_1" xmlns="&ns_svg;" xmlns:xlink="&ns_xlink;" width="1000" height="650" viewBox="0 0 955 650"
	 style="overflow:visible;enable-background:new 0 0 955 650;" xml:space="preserve">
<style type="text/css">
<![CDATA[
	.st0{font-size:10.2828px;}
	.st1{font-size:68.5519px;}
	.st2{font-size:11.9966px;}
	.st3{fill:none;stroke:#676767;stroke-width:0.75;}
	.st4{font-size:15.4242px;}
	.st5{fill:none;}
	.st6{fill:none;}
	.st7{fill:#FFFFFF;stroke:#000000;}
	.novalue{fill:#EAEAEA;stroke:#676767;stroke-width:0.75;}
	.st9{font-family:'Arial';}
	.st10{font-family:'Trebuchet MS';}
	.st11, .hide{display:none;}
	.show{display:inline;}
	.st12{font-size:30.8484px;}
	.st13{font-size:13.7104px;}
]]>
</style>
<script  type="text/javascript">
	<![CDATA[
myDistricts = [];
myDistricts[0] = ['District', 'Population density', 'Average age', 'Rate females', 'Rate foreign nationality','Dependency ratio'];
myDistricts[1] = ['Innere_Stadt', 5873, 46.9, 52, 20.7, 59];
myDistricts[2] = ['Leopoldstadt', 4991, 40.2, 50.8, 28.1, 54.4];
myDistricts[3] = ['Landstraße', 11495, 41.7, 52.6, 23.5, 51.3];
myDistricts[4] = ['Wieden', 17431, 42.2, 52.9, 24.4, 49.5];
myDistricts[5] = ['Margareten', 26437, 39.9, 51.1, 28.9, 44.4];
myDistricts[6] = ['Mariahilf', 20392, 41.5, 52, 22.7, 41.9];
myDistricts[7] = ['Neubau', 18936, 40.7, 52.8, 23.5, 39.1];
myDistricts[8] = ['Josefstadt', 21787, 41.1, 51.6, 23, 42.2];
myDistricts[9] = ['Alsergrund', 13375, 41, 52.5, 24.8, 43.3];
myDistricts[10] = ['Favoriten', 5569, 40.6, 51.5, 24.6, 60.5];
myDistricts[11] = ['Simmering', 3901, 39, 51.2, 19.6, 57.5];
myDistricts[12] = ['Meidling', 10931, 40.5, 52, 24, 57.5];
myDistricts[13] = ['Hietzing', 1360, 45.7, 54.7, 12.4, 75.4];
myDistricts[14] = ['Penzing', 2516, 42.7, 52.7, 17.7, 58.8];
myDistricts[15] = ['Rudolfsheim-Fünfhaus', 18355, 39.3, 50.6, 34.1, 47.5];
myDistricts[16] = ['Ottakring', 10997, 40.4, 51.4, 28.2, 52.8];
myDistricts[17] = ['Hernals', 4646, 40.8, 51.6, 26.6, 52.7];
myDistricts[18] = ['Währing', 7564, 42, 53.8, 21.6, 56.8];
myDistricts[19] = ['Döbling', 2759, 44.6, 54.3, 17.3, 69.4];
myDistricts[20] = ['Brigittenau', 14643, 39.8, 50.9, 29.1, 53.8];
myDistricts[21] = ['Floridsdorf', 3209, 41.3, 52.2, 14, 63.3];
myDistricts[22] = ['Donaustadt', 1554, 39.8, 52.1, 12, 61];
myDistricts[23] = ['Liesing', 2920, 42.7, 53.1, 11.3, 66.3];


myTopics = [];
myTopics[0] = ['topic', 'classmax1', 'classmax2', 'classmax3', 'classmax4', 'classcolor1', 'classcolor2', 'classcolor3', 'classcolor4', 'min', 'max', 'average', 'topic short', 'topic long line1', 'topic long line2'];
myTopics[1] = ['popdens', 5000, 12500, 20000, 27500, '#EFF3FF', '#BDD7E7', '#6BAED6', '#2171B5', 1360, 26437.2, 4132, 'Population density', 'Population per km', '', '4132.0'];
myTopics[2] = ['age', 40, 42.5, 45, 47.5, '#f7f7f7', '#cccccc', '#969696', '#525252', 39, 46.9, 41.1, 'Average age', 'Average age in years', '', '41.1'];
myTopics[3] = ['female', 51.6, 52.6, 53.6, 54.7, '#feebe2', '#fbb4b9', '#f768a1', '#c51b8a', 50.6, 54.7, 52.2, 'Rate females', 'Rate of female', '(population in %)', '52.2'];
myTopics[4] = ['foreign', 15, 20, 25, 35, '#edf8e9', '#bae4b3', '#74c476', '#238b45', 11.3, 34.1, 21.5, 'Rate foreign nationality', 'Rate of population', '(with foreign nationality in %)', '21.5'];
myTopics[5] = ['dependency', 48.2, 57.2, 66.3, 75.4, '#FFFFB2', '#FECC5C', '#FD8D3C', '#E31A1C', 39.1, 75.4, 54.7, 'Dependency ratio', 'Dependency ratio', '(population 20 - 	64 years)', '54.7'];

function showTopic(number) {

	// show legend header
	document.getElementById("legend_heading1").firstChild.nodeValue = myTopics[number][13];
	document.getElementById("legend_heading2").firstChild.nodeValue = myTopics[number][14];

	// highlight the active topic
	for (var i = 1; i <6; i++) {
		if (i == number) { 
			document.getElementById('bullet_'+myTopics[i][0]).setAttribute('class','show');
		} else {
			document.getElementById('bullet_'+myTopics[i][0]).setAttribute('class','hide');
		}
	}
	
	// show maximum class values and set fill color
	for (var i = 1; i <5; i++) {
		document.getElementById("boxclass"+[i]).setAttribute('fill',myTopics[number][i+4]);
		document.getElementById("classmax"+[i]).firstChild.nodeValue = myTopics[number][i];
    }

    // show mean value
    document.getElementById("legend_heading4").firstChild.nodeValue = myTopics[number][15];

	// coloring the districts
	for (var i = 1; i <24; i++) {
		if (myDistricts[i][number] <= myTopics[number][1]) {
			document.getElementById(myDistricts[i][0]).setAttribute('fill',myTopics[number][5]);
		} else if (myDistricts[i][number] <= myTopics[number][2]) {
			document.getElementById(myDistricts[i][0]).setAttribute('fill',myTopics[number][6]);
		} else if (myDistricts[i][number] <= myTopics[number][3]) {
			document.getElementById(myDistricts[i][0]).setAttribute('fill',myTopics[number][7]);
		} else if (myDistricts[i][number] <= myTopics[number][4]) {
			document.getElementById(myDistricts[i][0]).setAttribute('fill',myTopics[number][8]);
		}
	}
	
}


		
		]]>
</script>
<g id="Ebene">
	<g id="districts" class="novalue">
		<path id="Liesing" class="st8" d="M77.161,546.4l1.69,0.742l0.417,0.206l1.045,0.616l1.882,0.824l1.045,0.618l0.417,0.203
			l0.419-0.41v-0.822l-0.628-1.646l1.881,0.408h0.836l1.881,1.853l0.627,0.823l2.509,2.468l3.972,3.703l0.835-0.823l1.254-1.234
			l1.463-1.23l9.825-5.761h0.208l1.253-0.822l8.361-4.729l4.807-2.674h0.209l1.881-0.616l6.062-2.059l1.463-0.408h0.209v-0.207
			l0.627-0.411l6.062-5.346l2.299-0.412h0.627l1.045-0.204l6.898,0.82l3.344,1.852l3.136,1.646l2.509,1.645l5.643,3.495l2.09,1.442
			l0.418,0.205l0.208-0.617l2.717-4.525l3.554-5.759l2.299-3.907l1.045-1.645l0.417-0.618l1.882,1.851l0.209,0.207l1.045,1.027
			l-0.836,1.028l-1.045,1.851v0.204l-1.045,1.439l0.836,0.617l2.299,1.439l1.672-0.206l1.672-0.206l2.508-0.617h0.418l0.209-0.203
			h0.2l0.418,1.026l0.208,0.411l0.209,0.206l1.254,3.701l0.627,2.058h0.208h0.209v-0.207l0.627-0.206l-0.209-0.616l3.762-2.057
			l2.927-1.439v-1.026v-1.853v-0.822l0.209-4.729v-0.206l0.208-0.41v-0.205v-0.206v-0.205v-0.204l0.209-0.206v-0.411l0.417,0.206
			h0.209l0.627,0.205l3.762,0.615l2.509,0.207l-0.418,0.408l-0.209,0.413l-0.209,0.205l-0.209,0.41l-0.209,0.205l-0.209,0.413
			l-0.209,0.203l-0.208,0.413l-0.209,0.407l-0.208,0.207l-0.209,0.41l-0.209,0.205l-0.209,0.411l-0.208,0.41v0.412l-0.209,0.206
			v0.201l-0.418,1.029l-0.418,1.028l-0.418,0.822l-0.836,2.264l2.09,0.617l5.853,2.468l2.299-2.468l0.628-0.413v-0.203l1.044-1.028
			l0.627-0.412l1.254-1.23l0.627-0.411l0.627-0.824l0.627-0.409l0.209-0.206l1.463-1.232l0.209-0.207l1.463-1.025l0.627,0.205
			l0.209,0.204l1.254,0.413l0.209,0.203l0.627,0.206h0.417l0.418,0.207l0.627,0.205l0.836,0.203h0.627l0.418,0.206l1.045,0.205
			h0.418h0.209l2.299,1.028l0.627,0.205h0.418l0.627,0.205l0.417,0.206l0.836,0.205l2.509,0.41l2.09,0.412l1.881,0.407l1.045,0.207
			h0.209l-0.209,1.027v0.616h0.418l1.045-0.409h0.627l2.091-0.618l0.208,1.854l0.209,1.232h0.418l3.554-0.618h0.207v-0.206
			l0.209-0.202v-0.206l0.209-0.207v-0.203h0.209h1.463l1.252,0.203l1.255,0.207l4.807,1.438l1.254,0.617l1.045,0.206l1.045,0.616
			l1.044,0.41l0.836,0.616h0.837l0.208-0.206l0.209-0.409l0.209-0.205l0.417-0.411l0.209-0.206l0.209-0.409l0.626-0.617l1.254-1.439
			l2.089-2.057l1.881-2.057l1.046-1.233l1.672,4.113l0.626,1.232l0.628,2.058l1.044,2.878l0.629,0.823l0.417,0.823l0.208,0.202
			l0.209,0.411l0.208,0.207l0.836,0.821l0.837,0.411l0.835,0.616l1.045,0.616l0.836,0.205l2.09,0.618l0.626,0.204l2.718,0.617
			l4.599,1.231l2.718,0.206l3.553,0.205l3.345,0.205l5.018,0.205l1.881,0.207h2.717h1.045l1.044,0.205l0.628,0.205l0.417,0.205
			l1.255,0.205l0.628,0.207l5.435,2.056l5.433,1.853l2.929,1.025l2.299,1.028l4.391,1.646h0.208h0.209h0.417l2.51,0.822l1.674,0.616
			l-2.303,7.199v0.206l-2.508,5.757l-1.462-0.411l-0.627-0.204l-0.628-0.619l-0.209-0.204l-0.208,0.617l-0.627,1.646l-0.837,2.263
			l-1.044,2.673l-1.254,3.291l0.418,0.206h0.207h0.428v0.204l-0.626,1.646l-1.882,4.937l-0.418,0.205l-2.299,5.349l-0.209,1.439
			l-0.416,0.82l-0.631,3.084h-0.208h-0.418l-0.626,3.087v0.206l-0.836,3.494h-1.672l-1.672-0.203l-1.882-0.413l-3.763-0.407H314.4
			l-0.209-0.207h-0.209h-0.418l-2.512-0.411l-0.208-0.205h-0.209h-0.418l-0.207-0.205l-0.209-0.205l-0.209-0.207v-0.205
			l-3.553-2.055l-0.836-0.617l-0.626-0.206l-2.718-1.852l-0.627-0.409h-0.21l-0.419-0.413l-0.206-0.204l-0.837-0.824h-0.209
			l-0.209-0.203l-0.21-0.205h-0.207h-0.209v-0.205l-3.134-0.617l-3.346-0.823h-0.208h-0.209l-0.418-0.205h-0.629l-3.762-1.231
			l-1.463-0.616l-0.418-0.204l-2.716-0.825l-3.137-1.025h-0.417l-1.465-0.616l-2.924-0.824l-2.509-0.616l-3.136-1.028l-1.463-0.408
			l-0.209-0.207l-1.253-0.408l-4.183-1.234l-2.508-0.823h-0.208h-0.417l-2.299-0.615l-0.209-0.206h-0.836l-0.418-0.205l0.629,3.702
			l-0.209,0.82l-0.627,1.234l-0.418,0.822l-0.626,1.646l-1.882,4.113l-0.418,0.82l-1.043,3.086l-2.09,6.17l-0.836,2.264
			l-0.836,2.468l-0.418,0.617l-0.207,0.822l-0.418,1.23v0.207l-0.627,1.853l-0.418,1.025l-2.508-1.025l-0.836-0.411l-1.463-0.823
			l-2.299-0.411l-0.627,0.206v0.411l-0.208,1.028l-0.21,0.822l-0.208,0.41l-0.836,3.906l-0.209,1.852v0.411l-0.418,2.265
			l-0.208,2.673l0.208,0.823v0.203l-0.627,0.204h-0.418l-0.417,0.206l-1.463-0.206l-1.463-0.204h-0.627l-2.508-1.438l-1.463-0.823
			l-0.418-0.205l-3.762-2.878l-0.836-0.618l-1.253-1.23l-1.254-1.029l-1.254-1.233l-0.627-0.615l-1.462-2.057l-0.418-0.207
			l-0.209-0.409l-0.418-0.205l-1.258-0.62l-1.463-0.617h-0.209h0.209l0.209-1.438l0.418-1.851v-0.617l-1.881-6.584h-0.209
			l-2.09-0.202l-3.763-0.822l-5.644-1.232l-3.762-0.617l-1.464-0.411h-0.417h-0.209l-1.463,0.204h-0.627l-1.463,0.412h-0.209h-0.209
			v0.204h-0.209v0.207l-0.627,0.408h-0.209l-0.208,0.207h-0.209l-0.417,0.208l-0.209-0.206h-0.208l-4.181-3.703l-0.626-0.616h-0.209
			l-0.627-0.206h-1.045l-0.836-0.204l-1.044-0.205h-0.418l-1.045-0.412l-0.836-0.203l-2.09-1.027l-1.045-0.616l-1.045-0.619
			l-0.627-0.204l-0.418-0.206h-0.417l-3.345-0.617l-1.462-0.204v0.204v0.206h-0.837h-0.417l-0.627-0.206h-0.627h-0.627h-1.044
			h-0.836l-0.836,0.206l-0.836,0.205l-5.226,2.88l-0.208,0.203l-0.627,0.412l-0.209,0.205l-0.418,0.41l-1.045,1.028l-0.627,1.027
			l-0.418,0.41l-0.418,0.206l-3.344,2.057h-0.209H144.7h-0.209h-0.418l-0.208-0.203h-0.209l-1.881,0.406v0.207l-0.209,0.204v0.207
			h-0.209l-0.209,0.205h-0.208l-1.673-0.205l-0.417-0.207h-0.209l-3.136-0.616h-1.463l-1.672-0.819l-0.836-0.618l-1.671-0.616
			l-2.3-0.618l-3.554-0.821H123.8l-3.762,0.615l-2.717,0.41l-1.045,0.206l-4.39,0.823l-1.254,0.205h-0.209l-1.253,0.206
			l-1.881,0.615l-2.09,0.41l-0.836,0.411l-4.389,2.675l-0.209,0.205l-1.463,1.027l-0.627,0.617l-1.253,1.026l-1.464,0.41
			l-1.881,1.028l-0.418,0.207l-1.672,0.821h-0.418l-0.209,0.409h-0.208l-0.209,0.206l-0.209,0.205l-0.418,0.41l-0.209,0.205
			l-0.209,0.206l-0.209,0.205l-0.835,0.822l-0.837,0.617h-0.208l-1.672,1.028h-0.209H84.72h-0.209l-0.209,0.203l-0.209-0.203
			l-2.299,0.203h-0.627l-0.418,0.206H80.54h-0.418l-0.209,0.206h-0.208l-0.209,0.205l-1.045,0.411l-0.627,0.205l-0.627,0.41
			l-0.417,0.204l-0.209,0.414l-0.209,0.202v0.205l-2.508-1.644l-3.554-2.059l-0.626-0.205h-0.209l-0.418-1.439l0.627-0.616
			l1.045-0.207l1.463-1.025l2.09-1.44l0.418-1.232l0.208-0.822l2.09-0.409l2.299-0.824l1.881-0.821l2.09-0.412l2.299-0.407
			l0.417-0.207l1.882-0.205l1.672-0.41l4.598-1.646l1.881-0.821l1.254-0.618l0.627-0.204l0.209-0.206l0.418-0.207l2.926-0.615
			l7.316-1.853l0.418-2.055l0.417-2.88l-1.045-0.206l-0.627-0.205l-1.463-0.617l-0.209-0.205L106.014,593l-0.627-0.617l1.672-1.439
			l0.836-0.616l1.254-3.702h-0.627l-4.181,0.618l-2.718,0.205l-2.717,0.411l-3.344,0.408l-0.209,0.206h-0.208h-0.209h-1.881h-0.418
			l-0.417,0.205h-0.419h-1.045l-0.627,0.205l-2.717,0.618l-2.3,0.616l-1.464,0.412h-0.417h-0.208l-0.627,0.203h-0.418H81.77h-1.045
			h-0.836l-0.417-0.203l-0.209-0.618v-0.41l0.627-0.618l0.627,0.205l0.418,0.207v-0.412l-1.045-3.7l-0.208-0.616l-0.209-0.205
			l-0.418-0.206l-0.418-0.206l-0.209-0.41v-0.617l-0.209-1.024l-0.627-1.441l-1.044-1.646l-0.628-0.617l-0.418-0.206l-0.835-0.205
			v0.205h-0.418l-0.209-0.205l-2.091-0.618v-0.409l-0.626-0.618v-0.82v-0.205l-1.463-2.265l-1.045-3.085l-0.627-0.82l-0.209-0.411
			l-0.418-0.206l-0.208-0.204l-0.836-1.233l-1.045-1.853l-0.21-1.232v-0.616v-0.205l-0.418-0.41l-0.208-0.411h-0.209l-1.254-0.617
			l-0.836-0.617l-1.254-0.409l0.835-4.114l1.254-0.617l0.392-0.308l1.672-1.852l0.236-0.31l0.417-0.409l0.836-0.618l1.045-0.616
			h0.209l0.418,0.41h0.627l3.762-0.618l2.508-0.82l1.046-1.027l0.209-0.412l0.209-0.409v-0.618v-0.821l0.208-0.616L77.161,546.4z"/>
		<path id="Donaustadt" class="st8" d="M507.73,242.551l1.256,0.822l2.509,1.441l1.043,0.617l0.838,0.411l1.044,0.412
			l4.391,1.028v-0.206l-0.211-1.234l-0.207-0.206l0.207-1.028l0.211-1.645v-0.207l0.628-1.851l0.209-0.411l0.209-0.617l0.418-1.029
			l0.627-1.234l1.045-3.085l0.418-1.439l0.209-0.823v-0.617v-0.617l-0.627-2.262l-0.628-1.851l-0.209-0.412v-0.206l0.209-0.822
			l0.209-1.234v-0.412v-1.851l-0.209-1.851l-0.418-0.206l-0.418-0.206l-0.208-0.411l-0.208-0.823l-1.048-5.346l-0.627-6.17v-1.029
			l-0.209-1.645v-1.439v-0.205l0.209-1.646l0.417-2.056l0.209-1.028l-0.209-0.411v-0.206l-0.209-0.206l0.837,0.206h0.208
			l3.974,0.617h0.628l0.835,0.206h0.418l1.673,0.206l5.02,0.412h0.625l2.093,0.206l4.18,0.206h0.208h0.629l2.298,0.206h0.836
			l1.256,0.411l-0.419,1.44l6.271,2.262l7.315,2.879l2.719,1.44l2.088,1.233l0.418,0.206l0.838,0.411l1.671,0.617l1.045,0.412
			l1.672,0.616l2.09,0.823l2.719,0.823v0.206l-0.625,1.851l0.208,0.206l1.672,1.028l1.044,0.617l0.417,0.207l-1.043,3.701
			l-0.628,2.056l-1.046,3.085l-0.625,1.852l-1.048,0.411l-1.046,0.822l-0.207,0.207l-1.466,2.878l-2.925,5.347l-0.208,0.206
			l-0.836,2.057l-2.718,7.198l1.044,0.206h0.837l2.09,0.616l0.416,0.412l3.137,2.262l2.093,1.44l1.881,1.028h0.208l0.836,0.411
			l-0.207,0.823l-0.418,1.234l-1.463,5.758l4.388,1.028h0.418l5.854,1.234l0.836,1.851l0.837,1.851l1.045,2.262l1.881,0.822
			l2.09,0.823l2.3,1.029l2.717,0.617l2.093,0.822h0.207l3.555,1.029l1.044,0.206l3.973,0.823l0.838-2.057l2.298-1.028l2.3-1.028
			l2.092-0.617l2.718-0.617l2.717,0.617l1.046,0.206l1.673,0.206l8.567,2.057l-1.253,3.29l-1.253,3.085l-1.674,5.141l-2.089,6.992
			l-1.045,3.085l-0.208,1.234l-0.418,1.029v1.028l-0.629,3.702l-0.627,4.113l-0.42,3.908l-0.207,1.439v0.206l-0.629,2.057
			l-0.835,2.262l-0.628,2.262l-0.418,2.674l-0.418,2.879h2.3h1.046h2.303h4.807h2.089l1.255,0.206h1.046l-0.21,2.674l-0.208,1.231
			l-0.208,2.059l2.718,1.234l2.508,0.82l3.136,1.232l-0.836,2.469l-1.882,6.787l-1.043,3.495l-1.047,3.086l-0.837,3.701
			l-0.836,3.497l-0.208,0.205l-0.419,2.879l-0.627,2.469l-0.418,2.468l-0.627,2.88l-0.627,2.467l-0.418,2.47l-0.629,2.879
			l-0.207,2.674l0.207,1.233l0.211,1.646l-0.211,3.29l-0.416,3.084l-0.628,3.085l-0.836,3.086l-1.045,2.879l-1.044,3.086
			l-1.045,2.264v0.203l-0.837,1.646l-0.419,0.617l-2.091,4.114l-1.045,1.851l-0.417,0.615l-0.628,1.234v0.617l-0.418,0.822
			l-1.254,1.646l-0.417,0.617l-0.836,1.645l-1.045,1.646l-0.418,1.645l-0.417,1.439l-0.209,0.409v1.44v0.205l-1.046,3.497
			l-0.419,1.438h-0.206l-0.21,0.616l0.836,1.646l1.464,2.471l0.629,1.231l1.253,2.879l0.628,1.853l0.626,2.057l1.673,4.522
			l0.208,0.207l1.254,2.878l0.627,2.674l-1.253,2.675v0.204l-0.628,0.822l-0.418,0.822l-0.209,0.204l-1.044,1.854l-1.673,5.142
			v0.205l-0.626,3.085l-0.417,5.144l1.462,0.406l0.209,0.207h0.209l1.88,0.411l1.465,0.617l0.627,0.617l0.417,0.412l0.209,0.409
			l-1.254,3.291l-2.09-1.439l-0.836-0.616l-0.836-0.618l-0.836-0.616l-0.418-0.204l-0.836-0.821l-1.682,8.639l-0.208,1.234
			l-0.21,1.027l-0.208,1.438v1.234l4.81,5.758l0.627,0.617l0.837,0.619l0.836,0.819l0.418,0.411l-2.091-0.411l-0.836-0.205
			l-2.3-0.82l-2.092-0.619l0.417,2.879l3.975,1.438l0.836,0.412l0.836-0.412l0.836-0.82l0.628-0.617l0.836-0.205l3.137,0.618
			l2.509,1.024v-0.407l-1.253-4.524l-0.419-0.411l-0.628-0.411l-2.508-0.409l-0.418-0.205l-0.627-0.823l-0.21-0.205l-0.418-0.616
			l0.21-0.617v-0.62l1.045-1.026l1.463,0.206l2.718,0.206l0.837-0.206l0.626-0.41l0.42-0.618l0.209-1.027l0.625-0.412h2.929
			l0.627,0.207l2.718,1.853l0.208,0.204l0.418,0.617v0.204l-0.209,1.027l0.626,3.702l0.628,1.852l0.418,0.821l0.209,0.824
			l0.208,0.822v1.026l-0.417,2.265l-0.627,0.41l-1.045,0.409l-1.672-0.206h-0.418l-1.464,0.206h-0.627h-0.209l-0.836-0.614
			l0.21,0.407l0.207,1.853l0.628,1.232l0.208,0.617l1.046,3.702l0.628,3.495l1.671,0.823l0.417,0.41l1.046,1.232l-0.628,3.496
			l0.21,0.617l0.417,0.409v0.207l3.137,3.086l1.674,2.261h0.627h0.836h2.299l1.673,0.824l-1.045-1.234l-1.881-2.673l-0.836-1.027
			l0.209-0.413l0.209-0.819l0.626-0.207l1.673-0.409h1.254l1.673,0.409l0.836,0.411l1.673,1.851l0.418,0.824l0.417,0.41l0.627,1.438
			v0.205l0.417,0.823l0.211,0.411l1.045,1.026l1.463,2.263l0.838-0.409l0.626-0.412l0.627-0.822l0.627-1.438l0.839-1.028l0.836-0.41
			l1.881-0.824l0.836-0.614l2.509-1.646h0.209l1.254-0.412h1.463l0.835,0.205l0.42,0.207l0.417-0.207l0.417-0.408l0.417-0.207h1.045
			l3.347,1.439l1.673,1.439l0.418,0.41l1.462,1.438v0.413l1.256,2.262l0.208,1.44l0.418,2.263v1.027l-1.253,3.29l-0.209,0.82
			l-1.254,2.265l-1.045,1.232l-0.209,0.205l-0.628,0.617l-0.417,0.822l1.045,1.646h0.209l0.629,0.411l0.625,0.411l0.837,0.822
			l1.046,1.438l0.209,0.205l0.207,0.618l0.629,0.617l0.836,1.644l0.626,1.854l0.211,2.263l-0.211,1.234v0.203v0.617v1.439
			l-0.836,11.313v0.616l-0.208,3.084v0.41v3.497l-0.211,2.468v1.646l-0.206,2.674v0.41v0.412l-0.21,3.084l-0.208,2.057l-0.418,2.055
			v0.413l-1.673-0.614l-6.479-2.471l-1.254-0.617l-3.552-1.438l-2.51-1.028h-0.209l-0.836-0.411h-0.209l-3.138-1.232l-6.688-2.467
			l-1.047-0.412l-0.417-0.204l-0.418-0.206l-0.627-0.205l-2.091-0.617h-0.208l-6.271-2.058h-0.419l-0.417-0.204l-2.091-0.617
			l-1.043-0.205l-0.631-0.206l-0.417-0.206l-0.627-0.205l-1.044-0.204l-2.509-0.821l-1.254-0.411l-1.464-0.412l-0.208-0.204
			l-0.837-0.205l-0.837-0.207l-0.419-0.205l-0.627-0.204l-0.836-0.41l-0.627-0.204l-0.209-0.206l-0.416-0.207l-0.419-0.204h-0.21
			l-0.416-0.205V571.2h-0.21l-0.209-0.204h-0.208l-0.21-0.207l-0.836-0.409l-0.835-0.616l-1.255-0.823l-0.21-0.205l-0.417-0.205
			v-0.206h-0.208l-0.209-0.205l-0.208-0.205l-0.838-0.822l-1.044-1.026l-0.836-0.823l-1.045-1.028l-3.139-3.29l-3.97-3.908
			l-10.034-10.077l-1.674-1.852h-0.207l-0.21-0.409l-0.419-0.206l-0.626-0.615l-0.416-0.412l-0.419-0.204l-0.418-0.413l-1.255-0.82
			h-0.209l-1.88-1.438l-1.465-1.028l-0.628-0.412l-1.254-0.617l-6.269-3.904l-0.837-0.617l-0.628-0.412l-4.81-1.234l-0.209-0.203
			l-11.287-7.197l-1.464-0.821l-2.926-1.853l-7.107-4.729l-1.463-1.028l-1.881-1.232l-1.463-0.823l-0.419-0.205l2.508-2.468
			l-0.416-0.41l-1.672-1.441l-3.973-3.291l-0.417-0.407l-1.674-1.441l-1.882-1.645l-1.462-1.233l-1.674-1.646l-6.688-5.964
			l-3.762-3.701l-0.419-0.205l-0.209-0.409l-1.463-1.235l-8.361-7.813l-1.671-1.853l-10.452-9.871l-9.612-9.254l-1.256-1.439
			l-0.416-0.205l-1.466-1.646l-6.062-5.963l-5.228-5.142l-6.271-6.167l-5.017-5.145l-0.626-0.411l-5.645-5.759l-5.017-4.937
			l-6.271-6.375l-4.808-4.938l-6.479-6.786l-4.18-4.317l-7.107-7.61l-3.761-3.699l-4.809-5.349l-2.927-3.086l-2.509-2.672
			l-8.778-9.666l-1.881-1.853l-1.046-1.231l-2.927-3.293l-0.208-0.409l-1.463-1.646l-0.417-0.205l-3.137-3.498l-1.881-2.468
			l-1.674-1.646l-1.253-1.645l-1.673-2.058l-1.672-2.06l-2.09-2.467l-1.045-1.439l-0.417-0.41l-0.836-1.233l-1.253-1.438
			l1.045-0.822l7.734-6.17v-0.206l-0.629-0.821l-0.642-1.449l-0.208-0.41v-0.207v-0.204v-0.205v-0.206v-0.205v-0.206v-0.206h0.208
			v-0.204v-0.207h0.208v-0.206h0.209v-0.203h0.209l0.208-0.205h0.208h0.209h0.209h0.208h0.208h0.209h0.209l0.208,0.205h0.208h0.209
			h0.209h0.417h0.209h0.209h0.208v-0.205h0.208h0.209h0.209h0.208h0.208h0.21h0.209l0.629-0.207l1.462-0.41l1.881-0.617l0.419-0.206
			l0.208-0.205h0.209l0.209-0.206h0.209l0.208-0.205h0.208v-0.206h0.209l0.209-0.207l0.208-0.206l0.208-0.205l0.209-0.207
			l0.418-0.205l0.208-0.206l0.209-0.206l0.209-0.205l0.208-0.207l0.418-0.206l1.045-1.233l0.417-0.618l0.418-0.617L403,318.85
			l0.417-0.617l0.418-0.616l0.209-0.207l2.508-0.617l5.228-0.823l1.462-0.206l1.672,0.206h0.209h0.627h0.209h0.209h0.208h0.209
			h0.209l1.253-0.206l1.672-0.206l0.418-0.206h0.209h0.208h0.209h0.208h0.21h0.208l0.837,0.206l0.629,0.206l2.089-0.412l2.927-0.617
			h0.209l0.208-0.205h0.208v-0.206h0.208v-0.206v-0.205v-2.674v-0.205v-0.411v-2.263l0.21-3.907v-0.205l0.207-3.085v-0.206
			l0.419,0.206l1.88,0.823l0.21,0.205h0.207h0.209l0.21,0.207h0.208l0.417,0.205l0.209-0.411v-0.411l0.417-1.028l0.208-0.412v-0.617
			l0.21-0.206l0.209-1.028l0.627-1.646l1.674-3.497l0.415-0.822l0.837-1.851l3.554-6.786l0.628-1.028h0.208h0.21h0.208h0.209h0.207
			h0.21h0.208h0.21h0.207h0.209h0.21l0.417-0.206h0.418v-0.206h0.209h0.208l0.419-0.206l0.626-0.412l-2.09-4.318l-0.417-0.823
			l5.435-1.028h0.211h0.207h0.209h0.209h0.209l1.464,0.206h0.209l0.626,0.206l1.882,0.206h0.207h0.418l1.673,0.206h3.553
			l1.045-0.206l0.209,0.206l0.209,0.41l0.209,0.206l0.209,0.206l1.673,2.262l2.299,3.085l1.881-3.908l1.044-2.262l1.673-3.29
			l0.835-0.617l0.627-0.617l18.396-16.453l0.625-0.411l0.209-0.412l2.929-2.467l0.206-0.206l0.419-0.411l1.881-1.439l0.417-0.206
			l0.627-0.412l0.628-0.411l0.628-0.412l0.836-0.617l0.209-0.205l0.416-0.207l0.421-0.411l0.415-0.411l0.212-0.412l0.834-1.028
			l0.628-0.616l1.882-1.646l1.673-0.617h0.209h0.21L507.73,242.551L507.73,242.551z"/>
		<path id="Floridsdorf" class="st8" d="M307.504,222.398l4.182,1.027l1.046,0.207l4.182,0.822l0.626,0.205l1.463,0.207
			l0.626,0.205l2.091,1.029l2.299,1.027l1.467,0.823l0.417,0.206h1.881l4.39-1.646l-2.299-0.823l-1.255-1.029l-0.626-1.027
			l-0.627-0.823v-0.411l-0.628-1.234l-0.209-0.823l-0.626-1.851l-0.209-1.234v-1.028l0.209-1.028l0.209-0.823l0.208-0.616
			l0.208-0.412l0.628-0.411l1.672-0.617l1.045-0.412l1.044-0.412l1.254-0.205l1.045,0.205h0.209h0.627l1.463-0.205l0.836-0.205
			l0.628-0.207l0.628-0.205l1.673-0.206h1.462h1.463h0.838l0.627-0.207l0.626-0.205h0.209v-0.206l0.417-0.411l0.209-0.412
			l0.627-1.645l0.418-1.029l0.208-0.823v-0.411v-1.852v-0.616l-0.208-1.851l-0.209-0.412l-0.627-1.645l-0.209-0.412l-0.417-1.028
			l-0.209-0.206l-1.672-3.084l-0.418-0.617l-1.046-1.44l-0.208-0.206l-0.209-0.206l-0.418-0.412l0.836-1.439l0.628-1.029
			l2.089-4.113l1.672-3.702l0.418-0.823l0.627-1.851l0.627-1.646l0.209-0.41v-0.207l1.883,0.206h0.209l0.209,0.206h0.417h0.209
			l1.045,0.411l0.836,0.206l0.208,0.206h0.418l2.299,0.617h0.209h0.418h0.417l2.091-1.234l-0.418-0.205v-0.206l-0.208-0.206
			l-1.252-0.822l-1.255-0.617l-0.417-0.206l-0.418-0.206l0.208-0.617v-0.206l0.209-0.616l0.209-0.412l0.208-0.206v-0.206
			l0.209-0.206v-1.029l-0.417-0.41l-2.091-2.468l0.209-0.206v-0.206v-0.205l0.208-0.411l0.629-1.44l0.417-2.262l-0.627-3.497
			l-0.836-2.262l-0.626-1.233v-3.703l-0.836-0.206l-1.254-0.206l-1.463-3.085v-4.318l0.208-1.646l1.673-4.524h0.207l3.137-3.291
			l1.672-1.646l0.417-0.411l0.209-0.206l0.209-0.411h0.209l0.835-0.206l0.837-0.205l1.883,0.411l3.345,1.028l1.252-3.085
			l-2.089-0.206v-1.646l4.18,0.412v-0.822l-0.209-1.44l-0.209-1.44l1.255,0.206h1.463h0.209l1.045-0.206h0.209l0.628-0.205
			l0.837-0.206h1.253l0.209,2.468v2.057v0.205v0.823v0.617l-0.209,0.412l-1.043-0.206l-0.63,1.851l4.81,2.468l0.627,0.411
			l1.462,0.412l2.091,0.822l2.299,0.823l2.929,1.233h0.418l0.417-1.028l0.209-0.822l0.417-1.234l0.836-2.263l0.209-0.617
			l0.209-0.412l2.925-1.233l7.106-2.879l0.209-0.207l1.463-0.41l2.927-1.234l1.253-0.412l5.435-1.645l1.469-0.206l1.462-0.206
			l2.299,0.206h1.255l1.881,0.412l3.554,1.028l1.464,0.617l1.672,1.029l1.255,0.822l0.208,0.207l4.181,2.673h0.209l3.138,1.851
			l2.508,1.44l1.045,0.617l1.88,1.029l1.672,0.822l2.3,1.028l0.417,0.206l1.466,0.617l0.417,1.44l0.418,2.468v2.056l-0.418,2.469
			l-0.21,3.907l0.21,6.169l1.045,1.851l0.836,2.879l0.209,1.234l0.418,1.439l1.254,6.787v0.617v2.879v2.262v0.823v2.879v3.29
			l0.209,6.17v3.085v2.262v0.823v1.851v2.468v0.206l2.926,1.851l1.672,1.028l1.88,1.439l1.256,1.028l3.135,2.263l3.973,2.673
			l1.673,1.028l2.716,1.851l0.627,0.617l0.838,0.617l1.253,1.028l1.254,1.028l0.836,0.617l2.09,1.234l0.209,0.205l0.629,0.206
			l1.253,1.028l2.299,1.44l0.209,0.205l1.672,1.029l1.673,1.027l2.091,1.852l3.137,2.467l3.554,2.674l1.253,1.028l0.418,0.206
			l0.209,0.206l0.627,0.617l2.509,1.646l3.555,2.262l2.09,1.851l0.209,0.412l3.554,1.439v0.823l0.628,0.41h-0.418h-0.208h-0.209
			l-1.675,0.617l-1.879,1.646l-0.627,0.617l-0.837,1.028l-0.209,0.411l-0.417,0.412l-0.418,0.412l-0.419,0.206l-0.208,0.205
			l-0.836,0.617l-0.629,0.412l-0.625,0.411l-0.629,0.412l-0.419,0.206l-1.879,1.438l-0.418,0.411l-0.209,0.207l-2.928,2.467
			l-0.208,0.411l-0.627,0.412l-18.396,16.453l-0.626,0.617l-0.836,0.617l-1.675,3.29l-1.043,2.263l-1.881,3.908l-2.3-3.085
			l-1.671-2.263l-0.208-0.206l-0.21-0.206l-0.208-0.411l-0.209-0.205l-1.043,0.205h-3.556l-1.673-0.205h-0.418h-0.209l-1.879-0.206
			l-0.629-0.205h-0.208l-1.464-0.206h-0.209h-0.208h-0.209h-0.21h-0.208L444,276.69l0.417,0.823l2.09,4.318l-0.626,0.412
			l-0.418,0.205h-0.209h-0.208v0.207h-0.419l-0.417,0.205h-0.209h-0.209h-0.209h-0.208h-0.208h-0.21h-0.208h-0.208h-0.209h-0.208
			h-0.209l-0.626,1.029l-3.553,6.787l-0.839,1.851l-0.417,0.822l-1.672,3.497l-0.629,1.646l-0.208,1.029l-0.208,0.205v0.617
			l-0.209,0.41l-0.417,1.029v0.411l-0.209,0.412l-0.418-0.205h-0.209l-0.208-0.207h-0.209h-0.209l-0.208-0.205l-1.881-0.822
			l-0.418-0.207v0.207l-0.208,3.084v0.207l-0.208,3.907v2.263v0.411v0.205v2.674v0.205v0.206h-0.209v0.205h-0.21l-0.208,0.206
			h-0.208l-2.93,0.617l-2.09,0.412l-0.627-0.206l-0.835-0.206h-0.209h-0.208h-0.209h-0.21h-0.208h-0.208l-0.418,0.206l-1.673,0.206
			l-1.253,0.206h-0.208h-0.209h-0.209h-0.208h-0.208h-0.627h-0.209l-1.672-0.206l-1.466,0.206l-5.226,0.823l-2.508,0.617
			l-0.209,0.206l-0.417,0.617l-0.417,0.617L402,320.495l-0.419,0.617l-0.417,0.618l-1.045,1.233l-0.418,0.206l-0.208,0.207
			l-0.209,0.205l-0.209,0.206l-0.209,0.206l-0.416,0.205l-0.209,0.207l-0.209,0.205l-0.208,0.206l-0.208,0.207h-0.209v0.204h-0.209
			l-0.209,0.207h-0.208l-0.209,0.207h-0.209l-0.209,0.204l-0.416,0.206l-1.883,0.617l-1.463,0.411l-0.629,0.205h-0.208h-0.209
			h-0.209h-0.209h-0.207h-0.209h-0.209v0.207h-0.209h-0.208h-0.209h-0.418h-0.207h-0.209h-0.209l-0.209-0.207h-0.208h-0.209H387.8
			h-0.209h-0.207h-0.209h-0.209l-0.209,0.207h-0.208v0.204h-0.209v0.205h-0.209v0.205v0.207h-0.209v0.205v0.205v0.204v0.207v0.205
			v0.205v0.207l0.209,0.41l0.628,1.438l0.628,0.822v0.206l-7.734,6.169l-1.045,0.823l-1.254-1.646l-1.252-1.439l-2.301-2.881v-0.205
			l-4.183-5.553l-0.209-0.41l-1.463-1.853l-2.299-3.291l-0.209-0.205v-0.206l-0.836-1.029l-2.09-3.085l-1.044-1.439l-2.09-3.084
			l-1.674-2.262l-0.209-0.206l-1.046-1.646l-4.389-6.581l-0.208-0.412l-5.226-8.432l-0.629-1.028l-8.777-15.219l-1.672-2.879
			l-0.208-0.205l-0.209-0.412v-0.411l-1.046-1.645l-15.26-28.381l-5.88-11.105l-0.208-0.412l-0.208-0.411l-1.674-2.674l-1.879-3.907
			L307.504,222.398z"/>
		<path id="Brigittenau" class="st8" d="M335.096,274.017l0.208,0.412l0.209,0.206l1.672,2.88l8.779,15.218l0.627,1.028
			l5.228,8.432l0.209,0.412l4.389,6.581l1.046,1.646l0.208,0.206l1.672,2.262l2.089,3.084l1.045,1.44l2.092,3.085l0.836,1.028v0.206
			l0.209,0.205l2.299,3.291l1.462,1.854l0.209,0.408l4.18,5.555v0.206l2.302,2.879l1.254,1.438l1.254,1.646l-1.673,1.232
			l-1.883,1.439l-1.464,1.027l0.209,0.205l-4.39,3.293l-0.208,0.203l-7.735,5.965l-0.417,0.205l-0.627,0.412l-1.045,1.025h0.208
			l0.837,1.234l1.044,1.232l0.418,2.881l-0.418,0.82l-5.434,4.525l-2.3,1.027h-0.208h-0.208h-0.208v-0.205l-0.209-0.617
			l-2.719-4.937l-1.464-1.028l-1.881-1.026l-2.927-2.06l-5.434,2.676l-1.674,0.822l-1.465,0.616l-0.626,0.204l-2.718,3.908
			l-0.208,0.207v1.025l-1.043,0.41l-2.091,0.617l-1.881,0.616v-0.204v-0.206h-0.209v-0.206v-0.203l-0.208-0.207l-0.418-1.027
			l-0.209-0.205v-0.207h-0.208v-0.203h-0.209v-0.206l-0.211-0.207l-0.209-0.411l-1.253-1.232h-0.208l-0.836-0.824l-0.836-1.025
			v-0.207h-0.209V360.6h-0.208v-0.207l-0.209-0.205v-0.205h-0.209v-0.207l-0.209-0.204v-0.204h-0.208v-0.207l-0.209-0.206v-0.204
			h-0.209v-0.206v-0.207h-0.209v-0.204v-0.205h-0.208v-0.207v-0.205h-0.209v-0.203v-0.207h-0.209V356.9v-0.207v-0.205h-0.209v-0.204
			l-1.881-5.554h-0.208v-0.205v-0.207v-0.205v-0.205h-0.209V349.7v-0.205v-0.206l-0.209-0.206v-0.205v-0.204v-0.207l-0.21-0.205
			v-0.207v-0.203v-0.207v-0.205v-0.205h-0.207v-0.205v-0.205v-0.207v-0.205v-0.205V346v-0.206v-0.202v-0.207v-0.205v-0.207v-0.205
			l0.207-0.205v-0.205v-0.206v-0.206v-0.205v-0.206v-0.205v-0.206v-0.206h0.21v-0.204v-0.205v-0.207v-0.205v-0.205v-0.207
			l0.209-0.204v-0.205v-0.206v-0.205v-0.206l0.209-0.207v-0.203v-0.204v-0.207l0.208-0.412l0.209-0.617v-0.615l0.626-1.852
			l0.628-1.646l0.417-1.233l0.419-0.822l0.417-1.028l0.209-0.616l0.835-1.852l1.255-2.469l2.299-4.729h0.209v-0.206v-0.206
			l0.208-0.206v-0.205l0.208-0.206l0.209-0.412l0.417-0.411l0.208-0.206v-0.206l0.209-0.411l0.42-0.617l0.209-0.206l0.209-0.206
			l1.881-2.879l0.209-0.411l0.417-0.617l0.209-0.412l0.209-0.411l0.208-0.206l0.209-0.412l1.255-2.262l0.416-0.617l0.209-0.412
			l0.209-0.411v-0.411l0.417-0.41v-0.412l0.209-0.411l0.209-0.617l0.21-0.412l0.207-0.412v-0.41l0.209-0.412v-0.412l0.209-0.411
			v-0.411v-0.207l0.208-0.411v-0.411v-0.412v-0.412v-0.411v-0.617l-0.208-0.205v-0.617l-0.209-0.823l-0.209-1.028v-0.206
			l-0.207-0.205l-0.629-1.646v-0.206l-0.626-1.645l-0.209-0.412l-1.882-4.524l-0.208-1.028l-0.418-0.822v-0.412l-0.208-1.234
			l0.417-0.205v-2.06v-0.207v-0.205l-0.208-1.029h-0.208v-0.205h-0.208l-0.837-4.113v-0.823L335.096,274.017z"/>
		<path id="Döbling" class="st8" d="M188.579,284.925l0.627-1.645l0.627-1.853l1.463-1.438l2.509-2.262l1.462-1.44h0.419
			l1.881-0.617l1.463-0.411h0.626l1.046-1.44l2.299-3.085V269.5l-1.463-1.645l-2.299-2.879l-0.835-1.029l-2.091,0.206l-1.463,0.617
			l-0.835,0.206l-3.136-0.206l-0.627-0.206l-0.627-0.617l-0.209-1.028l-0.209-0.823l0.209-0.411l0.418-0.206l0.627-0.411
			l0.627-0.411l0.627-0.617l0.627-0.617l0.208-0.412l0.418-1.852l0.418-1.028l0.418-0.823l0.209-0.411l0.417-0.412l0.626-0.205
			l2.509-1.029l2.299-1.027l3.554-1.646l0.418-0.206l1.045,0.206l3.553,0.205l2.717-1.028l0.628-1.234l0.835-0.617l1.045-0.41
			l0.418,0.205l0.836,0.207h0.836l-0.418,0.822l-0.209,0.411l5.435,2.262l1.672,0.206l0.627-0.206l1.254-0.822l0.418-0.206
			l0.627-0.411l2.09-0.206l1.045-0.823l1.045-0.822l1.463-1.233l1.881-0.823h0.417h1.046l3.552-0.206l0.837-0.822l0.208-0.411
			l0.836-1.028l0.836-1.646l2.717-3.702l0.418-0.412l2.09-1.233l2.299-1.234h2.717l0.417,0.206h0.418l0.627,0.206l0.418,0.206
			l0.417,0.206v0.206l0.418,0.206l0.208,0.205l0.838,0.206l0.835,0.206h0.627v0.205l4.18,0.618h0.418l1.044-0.207h0.418l2.089-1.439
			l0.209-0.617v-1.234l0.208-0.822v-0.412l2.091-3.702l0.417-0.617l0.209-0.206l0.209-0.206l1.672-0.617h0.417h0.627h0.836
			l3.972-1.645l0.626-0.412l8.57-5.347l3.346-2.057l0.627-0.411l1.252-1.233l-1.879-2.674l-1.255-1.645l-0.417-0.617l-1.673-1.852
			l-1.463-1.645l11.496-3.702l2.926,5.347l0.627,1.028l5.645,10.489l4.181,0.822l1.464,2.674l1.881,3.908l1.672,2.673l0.208,0.412
			l0.208,0.411l5.854,11.105l15.259,28.38l1.045,1.646v0.412l-6.896,3.29v0.823l0.835,4.113h0.209v0.206h0.208l0.209,1.028v0.206
			v0.206v2.057l-0.417,0.205l0.208,1.234v0.412l0.419,0.823l0.208,1.028l1.881,4.524l0.209,0.412l0.627,1.645v0.206l0.629,1.646
			l0.207,0.205v0.206l0.209,1.028l0.209,0.823v0.617l0.209,0.206v0.617v0.411v0.411v0.412v0.412l-0.209,0.411v0.206v0.411
			l-0.209,0.411v0.412l-0.209,0.412v0.411l-0.207,0.411l-0.209,0.412L333,307.551l-0.209,0.411v0.412l-0.414,0.411v0.411
			l-0.209,0.41l-0.209,0.413l-0.417,0.616l-1.254,2.262l-0.207,0.411l-0.209,0.206l-0.209,0.411l-0.209,0.412l-0.417,0.617
			l-0.209,0.412l-1.882,2.879l-0.208,0.206l-0.208,0.206l-0.418,0.618l-0.208,0.41v0.207l-0.208,0.206l-0.418,0.411l-0.208,0.411
			l-0.208,0.207v0.204l-0.209,0.207v0.206v0.205h-0.209l-2.301,4.73l-1.254,2.47L320.054,331l-0.208,0.617l-0.417,1.025
			l-0.419,0.823l-0.417,1.234l-0.627,1.645l-0.627,1.851v0.617l-0.207,0.617l-0.209,0.411l-4.18,0.206h-3.138h-0.209h-0.207v0.207
			h-0.21h-0.209v0.203v0.207h-0.208v0.206l-0.628,3.7l-0.417,2.057v0.206v0.207h-0.209v0.616l-0.418,0.617l-0.208,0.819h-0.209
			v0.207l-0.209,0.206v0.204h-0.209v0.206h-0.208v0.207h-0.209v0.203h-0.209v0.207h-0.209h-0.208v0.207l-0.628-0.617h-0.208
			l-0.418,0.41l-0.836-0.41l-1.672,0.41l-0.209,0.207l-2.925-0.207v-0.207l0.208-1.233l0.209-1.231l0.209-0.411v-1.233l-2.509-0.207
			v0.207l-0.209,1.233l-0.209,0.206l-2.299-0.412h-0.209l-0.209,0.206l-0.208,0.206h-0.418l-4.181-1.029l-3.973-0.82h-4.807h-2.717
			v-0.205v-1.028v-6.786h-5.644h-2.509h-0.626h-0.836h-2.728h-0.418h-0.208l-0.418-0.206l-2.925-1.438l-5.018-2.675l-2.717-1.438
			l-0.627-0.204l-0.836-0.412l-0.627-0.206h-0.626L249.613,331h-0.626l-0.837-0.206h-0.418l-0.209-0.205h-0.208h-0.209l-0.208-0.205
			l-0.209-0.206h-0.208l0.208-0.205v-0.205h0.209l0.208-0.207h0.209l0.208-0.205h0.209l-0.209-1.233l-5.435-2.058l-0.208-0.204
			h-0.209v0.204h-0.208h-0.209v0.205h-0.209v0.207h-0.209l-2.927-1.439l-3.136-1.439l-1.672-0.822l-0.418-0.207l-0.836-0.617h-0.208
			v-0.205h-0.209v-0.206l-2.508-2.262l-0.209-0.412l-0.208-0.206v-0.206l0.208-0.822v-0.206l-1.672-0.412l-1.254-0.205h-0.209
			l0.209-0.823v-0.616v-0.618v-0.411l0.208-0.616v-0.412v-0.206h-0.208l-0.209-0.206h-0.209l-2.508-1.646l-1.045-0.617l-0.836-0.412
			l-0.627-0.205l-0.626-0.206l-0.418-0.206l-1.254-0.411l-0.418-0.206h-0.627l-4.39-0.412l-2.09-0.411l-2.927-0.411h-0.417
			l-1.464-0.617l-0.209-0.206l-1.463-0.41l-3.345-1.234l-2.508-0.616h-0.209h-0.209l-0.209-0.206h-0.418h-0.209h-1.044l-0.209-0.207
			l-0.837-0.205l-1.253-0.823l-1.464-0.206l-0.209-0.823V302v-0.206v-0.206v-0.411v-0.206v-0.411l-0.208-0.411v-0.206v-0.205v-0.206
			l-0.209-0.617v-0.206v-0.206l-0.209-0.207v-0.205l-0.209-0.206v-0.206l-0.417,0.206l-1.046-1.439l-0.417-1.646v-0.822
			l-0.836-3.497l-0.209-0.617l-0.209-2.056v-0.206l0.209-0.617v-0.617l0.209-0.823l0.208-0.205v-0.412h-0.004L188.579,284.925
			L188.579,284.925z"/>
		<path id="Währing" class="st8" d="M193.596,303.229l1.254,0.823l0.836,0.205l0.209,0.207h1.044h0.209h0.418l0.209,0.206h0.209
			h0.209l2.508,0.617l3.344,1.234l1.463,0.412l0.209,0.206l1.464,0.617h0.418l2.926,0.411l2.09,0.411l4.39,0.412h0.627l0.418,0.206
			l1.254,0.41l0.418,0.206l0.627,0.207l0.627,0.205l0.836,0.412l1.046,0.617l2.507,1.645h0.209l0.209,0.206h0.208v0.206v0.412
			l-0.208,0.617v0.41v0.617v0.617l-0.209,0.823h0.209l1.254,0.206l1.672,0.411v0.206l-0.208,0.822v0.207l0.208,0.205l0.209,0.412
			l2.508,2.262v0.206h0.209v0.206h0.209l0.836,0.616l0.417,0.207l1.672,0.822l3.136,1.44l2.927,1.439h0.208v-0.205h0.209v-0.205
			h0.209h0.209v-0.205h0.209l0.208,0.205l5.435,2.058l0.208,1.231h-0.208l-0.208,0.206h-0.209l-0.209,0.207h-0.209v0.204
			l-0.208,0.206h0.208l0.209,0.206l0.209,0.204h0.209h0.208l0.208,0.207h0.419l0.836,0.205h0.627l0.418,0.205h0.626l0.627,0.206
			l0.835,0.41l0.627,0.205l2.717,1.439l5.019,2.672l2.924,1.439l0.418,0.205h0.208h0.419h2.718h0.836h0.627h2.508h5.644v6.787v1.028
			v0.205h2.718h4.807l3.973,0.823l4.181,1.027h0.416l0.209-0.207l0.209-0.205h0.209l2.299,0.412l0.209-0.207l0.208-1.232v-0.206
			l2.507,0.206v1.232l-0.209,0.412l-0.209,1.232l-0.208,1.232v0.205l2.927,0.207l0.209-0.207l1.672-0.408l0.836,0.408h-0.209
			l-0.626,0.617l-0.209,0.207h-0.209l-0.208,0.205l-0.418,0.205l-0.836,0.411l-1.254,1.028h-0.208v0.205l-0.419,0.412h-0.211v0.205
			l-0.417,0.411v0.204l-0.209,0.206v0.206v0.206h-0.208v0.204v0.205l-0.208,0.412v0.615l-0.836,5.76l-0.836,4.937l-0.209,2.47
			l-0.209,0.409v0.207v0.41l-0.209,0.206l-0.207,0.411v0.204l-0.209,0.412l-0.209,0.205l-0.209,0.203l-0.208,0.207l-0.208,0.205
			h-0.209v0.207h-0.209l-0.207,0.205h-0.209l-0.209,0.205h-0.209l-0.208,0.205v-0.205h-0.209v-0.205h-0.209l-5.225,2.057
			l-0.209,0.205l-0.417,0.412v0.205l-2.091,7.815h0.418v0.204l-0.209,0.205l-0.209,0.822v0.206v0.203l-0.208,0.207l-0.208,1.028
			l-0.209,0.41l-0.835-0.207l-4.39-1.026h-0.209h0.209l0.209-1.44l1.044-3.496l-1.253-0.408l-4.39-1.232l-0.836-1.854v-0.205
			l0.836-1.438l0.836-1.646l-0.209-1.027l-7.734-5.759l-1.672-0.616l-4.18-2.675v-0.616v-0.617l0.209-0.41l-2.09-1.646v0.206
			l-1.046,1.027l-0.208,0.205l0.208,0.205l-0.208,0.205v0.205l-0.208,0.207l-0.418,0.207l-0.417,0.205l-0.836,0.41h-0.209h-0.209
			l-0.417,0.205l-3.136-0.411l-1.464-0.616v-0.207l1.046-3.084l-0.419-0.205l-1.672-0.412h-0.417l0.208-0.205v-0.615l0.209-0.411
			l0.209-0.822l-1.672-0.207l-2.3-0.616l-4.389-1.027l-1.045-1.233l0.209-1.438l0.208-0.412v-0.615l-1.672-0.821v-0.823v-1.027
			h-0.209h-0.209v0.205h-0.209h-0.209L237.5,349.5l-1.044,0.205h-0.209h-0.209l-0.209,0.205h-0.208h-0.209h-0.208l-0.209,0.205
			h-0.209h-0.209h-0.209h-0.209h-0.208h-1.254l-0.418-0.205h-0.417l-1.254-0.412l-0.627-0.205h-0.418l-0.836-0.41l-0.417-0.206
			l-0.209-0.205h-0.218l-0.209-0.412l-0.208-0.206l-0.209-0.203l-0.418-0.412h-0.418l-0.626-0.412l-0.627-0.205l-2.09-0.822
			l-5.853-2.879h-0.209v-0.411l-0.208-0.41v-0.821l-0.209-1.646v-0.206h-1.463l-1.045-1.233l-0.418-0.617l-2.089-1.232l-1.255-0.206
			l-2.508-0.204l-0.208,0.204l-0.209,0.617l-0.418,0.616h-0.208v0.205l-2.3,1.027l-1.463,0.413l0.209-0.618l0.208-2.263v-0.41
			v-2.262l-0.208-1.853l-4.181-0.205l-1.463,0.205l-1.045,0.206h-0.209h-0.209h-0.418l-1.672,0.204l-3.554-0.822l-0.417-0.205
			l-2.091-0.41l-0.209-0.205l-1.881-1.234h-0.209l0.209-0.822l0.417-0.617l0.627-0.615l1.254-0.618l2.717-1.027l0.627-0.205
			l1.254-0.411h0.209h0.627h0.627l1.044-0.412l-0.208-0.823v-0.205v-0.617v-0.41h0.208l0.837-0.207h0.209v-0.207l0.418-0.205
			l1.045-1.44l0.209-1.028h0.836l0.209,0.207l0.626,0.411l1.882-0.411l1.254-0.618l-1.045-2.879l-1.882,0.412h-0.835h-5.226
			l-1.463-0.206h-1.463l-1.254,0.206l-0.626,0.205h-1.464h-0.627l-1.253-0.205l-2.091-0.412l-0.208-3.496v-0.207v-0.617l0.208-0.411
			l1.045-1.028l1.463-1.028l1.463-1.028h0.209l1.881-1.028v-0.206l-0.209-0.206l0.627-1.028l1.045-0.411l0.208-0.206l0.836-0.41
			l0.627-0.206l0.209-0.206v-0.206h0.209l0.209-0.206L193.596,303.229z"/>
		<path id="Hernals" class="st8" d="M160.778,335.928l-0.417,0.617l-0.418,0.412l-0.209,0.204v0.206l-0.417,0.206h-0.209h-0.627
			l-1.463-0.616l-4.808-2.264l-2.09-1.028l-2.09-0.822l-0.417-0.204l-2.927-1.232l-3.762-0.617h-1.045l-0.209-2.471v-0.821
			l0.619,0.215l0.218-0.832v-0.204l-0.209-2.879l1.045-1.646l1.255-3.084l0.208-2.262l0.418-1.029l0.209-0.411l0.209,0.206h0.417
			l1.464,0.617l1.672,0.617l1.672-1.234l0.627-0.41l1.882-1.851l2.508-1.851v-0.205l0.418-0.412l0.208-1.029l-0.417-0.617
			l-0.627-1.439v-0.411l3.135-2.057l2.718-1.851l2.09-1.44l1.672-1.028v-0.206l0.418-1.851V298.5l-0.835-1.234l-0.418-0.617
			l-0.627-0.822l-0.418-0.207h-0.835h-2.3l-1.463-0.616l-1.045-0.411h-0.209h-0.628l-2.09-0.206l-0.209-1.028l1.464-0.206h0.418
			h2.09l0.835,0.206h0.418l2.718,0.206l2.09-0.822l0.836-0.412l0.208-0.206l1.045-0.823l1.672-1.027l0.837-0.412l1.044-0.411
			l1.882-0.822l1.881-0.412l2.926,0.206h0.836v0.206l0.836,0.205l0.836,0.206h1.045l1.044-0.206l1.881-1.233l1.672-1.029
			l1.881-0.206l2.299-0.617l0.209-0.205l0.627-0.411l0.627-0.206v0.411l-0.208,0.206l-0.209,0.822v0.617l-0.209,0.617v0.206
			l0.209,2.057l0.209,0.617l0.836,3.496v0.823l0.418,1.646l1.045,1.438l0.417-0.205v0.205l0.209,0.206v0.206l0.209,0.206v0.206
			v0.206l0.209,0.617v0.206v0.205v0.206l0.209,0.411v0.411v0.206v0.411v0.206V302v0.206l0.209,0.823l1.463,0.206l-0.209,0.617
			l-0.209,0.206h-0.209v0.205l-0.208,0.206l-0.627,0.205l-0.836,0.412l-0.209,0.206l-1.044,0.412l-0.628,1.028l0.209,0.206v0.206
			l-1.881,1.028h-0.209l-1.463,1.028l-1.463,1.028l-1.045,1.028l-0.209,0.411v0.617v0.206l0.209,3.496l2.091,0.412l1.253,0.205
			h0.628h1.463l0.627-0.205l1.254-0.206h1.464l1.463,0.206h5.226h0.835l1.882-0.412l1.045,2.88l-1.255,0.617l-1.881,0.411
			l-0.626-0.411l-0.208-0.206h-0.836l-0.209,1.028l-1.045,1.439l-0.418,0.206v0.207h-0.208l-0.837,0.205h-0.209v0.412v0.617v0.205
			l0.209,0.824l-1.044,0.41h-0.627h-0.627h-0.209l-1.254,0.411l-0.627,0.207l-2.717,1.028l-1.254,0.616l-0.627,0.617l-0.417,0.616
			l-0.208,0.824h0.208l1.881,1.231l0.209,0.206L190.05,331l0.417,0.205l3.554,0.822l1.672-0.207h0.418h0.208h0.21l1.045-0.203
			l1.463-0.206l4.181,0.206l0.208,1.851v2.263v0.41l-0.208,2.264l-0.209,0.617l1.463-0.412l2.299-1.026v-0.207h0.209l0.418-0.616
			l0.209-0.615l0.208-0.205l2.508,0.205l1.255,0.205l2.09,1.233l0.418,0.615l1.045,1.233h1.463v0.207l0.209,1.646v0.821l0.209,0.412
			v0.408h0.209l5.854,2.881l2.09,0.821l0.627,0.206l0.626,0.411h0.418l0.418,0.412l0.209,0.204l0.208,0.205l0.209,0.412h0.208
			l0.209,0.207l0.418,0.203l0.836,0.412h0.418l0.627,0.205l1.254,0.411h0.417l0.418,0.205h1.254h0.209h0.208h0.209h0.208h0.209
			l0.209-0.205h0.209h0.209h0.209l0.208-0.206h0.209h0.208l1.045-0.205l1.045-0.205h0.208h0.209v-0.207h0.209h0.208v1.028v0.821
			l1.673,0.824v0.615l-0.208,0.411l-0.209,1.438l1.045,1.233l4.389,1.027l2.299,0.616l1.672,0.207l-0.208,0.824l-0.209,0.407v0.617
			l-0.209,0.207h0.418l1.672,0.409l0.417,0.207l-1.044,3.085v0.204l1.463,0.615l3.135,0.412l0.419-0.205h0.209h0.208l0.836-0.41
			l0.419-0.207l0.417-0.205l0.209-0.204v-0.207l0.209-0.206l-0.209-0.203l0.209-0.207l1.045-1.027v-0.205l2.09,1.645l-0.208,0.413
			v0.616v0.617l4.181,2.672l1.672,0.619l7.733,5.758l0.209,1.026l-0.836,1.646l-0.836,1.44v0.204l0.836,1.852l4.39,1.235
			l1.252,0.408l-1.045,3.496l-0.207,1.438h-0.209h0.209l4.39,1.027l0.835,0.206l-1.881,5.144l-0.209,0.205l-1.671,4.729
			l-0.419,1.026l-0.208,0.824l-0.209,0.41v0.205l-1.463-0.205v-0.207l0.208-2.877v-3.908v-0.205l-0.208,0.205l-3.346,0.617
			l-0.417,0.203l-3.344,0.618h-0.418l-2.717,0.412l-0.627,0.204h-0.209h-0.208h-0.209h-0.209v0.205h-0.209h-0.208H265.5h-0.209
			l-0.837,0.205l-3.344,1.028l-2.507,0.618l-2.091,0.616h-0.209v-0.206l-0.208-1.854l-0.209-1.23v-0.206v-0.411l-0.209-1.23v-0.207
			h-2.508h-0.417l-1.881,0.207h-0.209v-0.207l0.417-1.853l-2.716-0.202h-0.209v-0.205v-0.41l0.627-2.06v-0.205l-1.881-0.204
			l-0.417-0.205l1.882-7.609l-3.763-2.057l-3.554-1.646l-0.627-0.412l-5.852-3.085l-0.836,1.438l-0.209,0.412l-4.181-0.822
			l-0.835-0.204l-0.209-0.207l-1.045-0.616l-0.209,0.41v0.206v0.207v0.204h-0.208l0.208,0.205v0.205v0.205l-2.299,0.412h-0.209
			v-0.205l-0.417-1.233v-0.41l-0.627-2.675v-0.205h-0.209h-0.209l-0.208-0.205h-0.212h-0.209h-0.209h-0.209v-0.206h-0.419H221.4
			h-0.209h-0.208v-0.206h-0.209h-0.209h-0.209h-0.208h-0.209h-0.209h-0.209h-0.209h-0.209h-0.209h-0.209h-0.208h-0.209h-0.209
			h-0.209h-0.209h-0.209v0.206h-0.209v0.206h0.209l0.209,0.41v0.207h0.209v0.205v0.205v0.205v0.205v0.205v0.616l-0.209,0.207
			l-1.255,0.205l-1.044,0.205h-0.209h-0.209v-0.205l-0.209-0.205l-0.626-0.207l-0.627-0.409h-0.209l-0.209-0.207l-4.39-1.851h-0.208
			l-1.672,0.206h-0.418h-0.208h-0.21h-0.208l-0.836,0.41h-0.418l-5.226,1.851l-0.626,0.207l-0.208,0.205h-0.209l-0.209,0.205
			l-0.627,0.616l-0.209,0.207l-0.209,0.205l-0.209,0.205l-0.626,0.616l-2.299,1.853l-0.209,0.205l-0.836,0.412h-0.209h-0.417
			l-2.299,0.205h-0.418l0.418-0.822l0.209-0.41l0.417-1.234l0.209-0.205l0.209-1.853l-0.209-2.263l-1.881,0.617l-1.045,0.411h-0.209
			l-0.209,0.205l-0.418,0.207h-0.209l-1.253-0.619l-0.627-0.204l-0.418-0.41l-0.627-0.412l-0.626-0.616v-0.206l-0.418-0.82
			l-1.881-1.441l-1.045-0.82l-2.508-1.232l-1.254-0.412l-0.209-0.205h-0.208h-0.209h-0.836h-0.208h-0.209l-0.836-0.205l-0.418-0.617
			h-0.208l-5.017,0.41h-1.464h-0.626h-0.627l-1.463,0.412l-1.253,0.205h-1.046h-0.208h-1.254l-2.299,0.207h-0.209h-0.626
			l-2.717,1.438l-4.599,2.263l-1.463,0.616l-0.418,0.205l-0.209,0.206l-1.463-0.411l-2.926-0.206h-0.208l-2.3,2.674v0.207v0.41
			l-0.418,0.617v0.204l-1.672,1.439l-0.209,0.205l-1.045,0.822l-1.672,1.234l-0.209,0.41l-0.208,0.409l-0.627,1.028l-1.254,1.439
			l-0.418,0.617h-0.836h-1.045l-0.418,0.205l-0.209,0.205h-0.208l-0.418,0.616l-0.209,0.412l-0.837,0.821L127.753,382l2.508-3.496
			l4.181-6.375l2.09-4.73l0.208-0.615l0.209-0.823l0.418-1.646l0.209-0.412l0.209-1.232v-0.205v-0.205v-1.439v-0.205v-1.029
			l0.209-0.204l0.418-1.438l0.209-0.206l0.417-1.027l0.209-0.206l0.208-0.41l0.209-0.205l0.418-0.617l0.209-0.205l2.09-1.233
			l1.254-0.821l0.417-0.207l1.255-0.617l0.417-0.205l0.209-0.204l1.881-1.233l0.208-0.412l1.673-1.438l0.417-0.412l0.209-0.411
			l0.627-1.026v-0.207l0.418-0.615v-0.206l0.836-0.615l0.417-0.413l1.255-1.027l3.971-3.291l0.209-0.205l0.209-0.203l1.254-1.646
			l1.751-2.296L160.778,335.928z"/>
		<path id="Ottakring" class="st8" d="M134.86,376.854l0.208-0.41l0.209-0.414l1.672-1.23l1.045-0.82l0.209-0.207l1.672-1.438
			v-0.207l0.418-0.617V371.1v-0.205l2.3-2.676h0.208l2.926,0.205l1.463,0.412l0.209-0.205l0.418-0.207l1.463-0.615l4.599-2.263
			l2.717-1.44h0.626h0.209l2.299-0.203h1.254h0.208h1.046l1.253-0.205l1.463-0.412h0.627h0.626h1.464l5.017-0.412h0.208l0.418,0.617
			l0.836,0.207h0.209h0.208h0.836h0.209h0.209l0.209,0.205l1.254,0.41l2.508,1.233l1.045,0.822l1.881,1.438l0.418,0.822v0.205
			l0.626,0.616l0.627,0.411l0.418,0.41l0.627,0.207l1.254,0.617h0.208l0.418-0.205l0.209-0.207h0.209l1.045-0.412l1.881-0.615
			l0.208,2.263l-0.208,1.851l-0.209,0.207l-0.417,1.233l-0.209,0.41l-0.418,0.823h0.418l2.299-0.206h0.417h0.209l0.836-0.411
			l0.209-0.206l2.299-1.851l0.627-0.617l0.208-0.206l0.209-0.205l0.209-0.206l0.627-0.616l0.209-0.205h0.209l0.208-0.206
			l0.626-0.205l5.226-1.853h0.418l0.836-0.41h0.209h0.209h0.209h0.418l1.671-0.206h0.208l4.39,1.852l0.209,0.205h0.209l0.627,0.412
			l0.626,0.205l0.209,0.206v0.205h0.209h0.209l1.044-0.205l1.255-0.206l0.209-0.205v-0.617v-0.207v-0.205v-0.203v-0.206v-0.206
			h-0.209v-0.206l-0.209-0.41h-0.209v-0.206h0.209v-0.204h0.209h0.209h0.208h0.209h0.209h0.208h0.209h0.209h0.209h0.209h0.208h0.209
			h0.209h0.208h0.208h0.209h0.209v0.204h0.208h0.208h0.209h0.418v0.206h0.209h0.209h0.209h0.209l0.208,0.205h0.209h0.209v0.205
			l0.627,2.674v0.411l0.418,1.232v0.207h0.208l2.299-0.412v-0.203v-0.207l-0.209-0.206h0.209v-0.205v-0.206v-0.204l0.209-0.412
			l1.045,0.616l0.209,0.206l0.836,0.205l4.181,0.821l0.208-0.408l0.836-1.44l5.853,3.084l0.627,0.412l3.554,1.646l3.761,2.057
			l-1.88,7.607l0.417,0.207l1.881,0.205v0.205l-0.627,2.059v0.408v0.205h0.208l2.717,0.205l-0.417,1.854v0.205h0.209l1.88-0.205
			h0.418h2.508v0.205l0.209,1.232v0.41v0.205l0.208,1.234l0.208,1.851v0.206h0.209l2.091-0.617l2.507-0.617l3.344-1.027l0.836-0.206
			h0.209h0.208h0.209h0.209v-0.203h0.209h0.208h0.209h0.209l0.626-0.207l2.718-0.411h0.418l3.344-0.615l0.417-0.207l3.344-0.615
			l0.209-0.205v0.205v3.908l-0.209,2.877v0.207l1.465,0.205l-0.21,0.409l-0.209,0.824v0.203v0.616v0.205v0.207v0.41l-0.208,3.086
			v0.41l-0.208,0.411v0.203v0.207v0.206v0.204l-0.209,0.206v0.205v0.205l-0.209,0.205v0.207l-0.209,0.205l-0.208,0.409l-0.418,0.822
			l-1.463,3.702v0.203l-0.209,0.207v0.203v0.207v0.207h-0.208v0.203v0.207v0.205v0.203v0.206v0.206v0.206v0.206v0.408l0.208,3.086
			h-0.208l-5.641,0.218l-2.509-0.411l-0.209-0.205l-5.644-1.232l-5.434-1.232l-7.734-1.646l-0.418-0.203l-3.134-0.617l-3.137-0.823
			l-2.926-0.616l-3.972-0.822l-0.417,1.438l-0.209,2.88l0.209,0.821l0.208,1.853v0.205l-1.045-0.41h-0.209l-0.417-0.207
			l-0.418,1.028l-0.417,1.231l-0.836,2.059l-2.09-0.824l-0.627-0.82v-0.617l-2.927-1.028l-0.208-0.204h-0.209l-3.554-1.232h-0.209
			h-0.208l-0.209-0.203h-0.209h-0.209h-0.208h-1.046v0.408h-0.209l-5.435-1.439h-0.836l-1.044-0.204l-0.21-0.207h-0.208
			l-0.627-0.204l-5.435-3.292l-2.09-1.233l-2.09,0.412l-1.463,0.412l-0.627,0.203l-1.672,0.617l-0.418,0.205l-0.836,0.206h-0.418
			l-0.418,0.205h-0.209h-0.209h-0.209h-0.208h-0.209h-0.209h-0.209h-0.209h-0.209h-0.209v-0.205h-0.209h-0.209h-0.208h-0.418h-0.209
			h-0.209l-0.209-0.206h-0.208h-0.209h-0.208h-0.209l-0.417-0.205h-0.209l-1.672-0.411h-0.418l-0.627-0.204h-0.209l0.418-0.205
			l0.209-0.205h0.209l0.209-0.207l0.627-0.617h0.209l0.418-0.615v-1.028v-0.206v-0.201l-0.209-0.207l-0.209-3.908v-0.412v-0.203
			v-0.411v-0.206l0.209-1.232l0.209-3.907h-0.209v-0.205h-0.209v-0.206h-0.209v-0.205v-0.206h-0.208v-0.205v-0.205v-0.204v-0.205
			v-1.439v-0.616l-0.209-0.207l-1.463-0.205l-3.136-1.233l-0.627-0.409h-0.418v-0.207h-0.627l-0.209-0.203h-0.209h-0.209h-0.208
			l-5.226-0.206H175.6l-0.836-0.205h-0.417h-0.418h-0.418h-0.208h-0.627h-0.209h-0.417h-0.209h-0.209h-0.628l-2.089-0.822
			l-1.046-0.205l-0.208-0.205h-0.209l-0.836-0.822l-0.419-0.411l-0.626-0.617h-0.209l-0.418-0.616v-0.205V388.6v-0.205l-1.881-1.646
			l-0.627-0.206l-0.208,0.206h-0.209h-1.254l-0.835-0.206l-2.3-0.41v-0.203l-0.418-0.205l-1.672,0.205h-0.209h-0.209l-0.627,0.203
			l-1.045,0.206v0.204l-1.672-0.82l-0.627-1.233l-1.045-0.822l-0.627-0.206l-2.508-1.23l-0.627-0.412l-0.209-0.205l-0.835-0.205
			l-0.628,0.205h-0.836l-1.881-0.41l-1.254-0.206l-2.508-1.853l-2.091-1.232L134.86,376.854z"/>
		<path id="Rudolfsheim-Fünfhaus" class="st8" d="M237.063,462.208l0.418-1.231v-2.057l1.672-4.317h0.208h0.209h0.209
			l4.809,0.409l1.043,0.205h0.209h0.209h0.21h0.208h0.208h0.209l0.417-0.205l0.418-1.851l-0.626-0.207l-2.51-1.026l-1.463-0.617
			l-0.626-0.408h-0.209l-0.627-0.617l-1.045-1.233v-0.206l0.836-1.852v-0.411l-0.418-0.205l-1.672-0.617l-1.253-0.411l-3.136-1.23
			h-0.418l0.209-0.412l0.836-2.057l0.836-2.469l0.627-4.936l0.209-1.646h1.254h1.254h0.418h1.254h2.09l0.836-0.204l-3.137-2.264
			l-3.344-2.468l-5.644-4.112l-1.254-0.411l0.836-2.058l0.418-1.231l0.418-1.027l0.418,0.203h0.209l1.044,0.412v-0.205l-0.208-1.854
			l-0.209-0.82l0.209-2.879l0.417-1.439l3.972,0.822l2.926,0.617l3.135,0.822l3.136,0.617l0.417,0.203l7.734,1.646l5.434,1.232
			l5.645,1.232l0.208,0.205l2.509,0.411l5.642-0.204h0.209v0.82l0.209,3.29v0.412l0.208,1.644l0.629,2.678v0.201l0.417,2.06v-0.206
			l0.418,1.234v0.408l0.417,1.439l0.209,0.412v0.41l0.417,1.851l0.628,2.058l0.627,2.057v0.206l0.209,0.822v0.202v0.207h-0.209
			l-0.627,2.47l-1.881,5.347l-0.417,0.616l-0.418,1.231l-0.418,1.234l0.209,0.617l1.881,4.522l0.836,1.233l-0.418,0.207
			l-0.417,0.204l-0.418,0.412l-0.417,0.203l-0.418,0.411l-0.208,0.205l-0.418,0.411L275.732,462l-0.418,0.411l-0.209,0.412
			l-0.208,0.41v0.205l-0.419,0.821l-0.417,0.617l-0.208,0.411l-0.419,0.41l-0.208,0.205l-0.417,0.614l-1.045,1.234l-0.209,0.207
			l-0.417,0.205l-0.418,0.411l-0.417,0.206l-0.418,0.409l-1.045,0.614h-0.208h-0.209l-0.836,0.412h-0.209l-0.209,0.206h-0.208
			h-0.209l-1.673,0.206h-0.208h-0.209h-0.836h-1.044h-0.835h-0.837h-1.044h-0.418l-0.417-0.206h-0.209h-0.209h-0.418l-0.208-0.206
			l-1.881-0.617l-0.418-0.203l-1.672-0.616l-0.208-0.206l-6.48-2.88l-0.418-0.205l-2.089-0.823l-0.627-0.205l-1.045-0.411
			l-0.418-0.205l-1.463-0.615h-0.208h-0.209l-1.672-0.41l-0.208-0.206h-0.627L237.063,462.208z"/>
		<path id="Penzing" class="st8" d="M161.275,336.1l-1.75,2.297l-1.254,1.646l-0.209,0.206l-0.209,0.204l-3.971,3.292
			l-1.255,1.024l-0.417,0.414l-0.836,0.616v0.205l-0.418,0.617v0.206l-0.627,1.025l-0.209,0.414l-0.417,0.409l-1.672,1.439
			l-0.209,0.409l-1.881,1.234l-0.209,0.207l-0.418,0.203l-1.255,0.618l-0.418,0.205l-1.254,0.823l-2.09,1.232l-0.209,0.203
			l-0.418,0.618l-0.209,0.206l-0.208,0.41l-0.209,0.205l-0.417,1.027l-0.209,0.207L138,359.37l-0.209,0.204v1.029v0.205v1.438v0.206
			v0.204l-0.209,1.234l-0.209,0.41l-0.418,1.646l-0.209,0.822l-0.208,0.616l-2.091,4.729l-4.18,6.375l-2.509,3.496l0.627,0.205
			l0.836-0.821l0.209-0.413l0.418-0.616h0.209l0.209-0.204l0.418-0.207h1.045h0.836l0.418-0.615l1.254-1.439l0.627-1.027
			l1.253,1.027l2.091,1.232l2.508,1.852l1.254,0.206l1.881,0.411h0.836l0.627-0.204l0.836,0.204l0.209,0.206l0.627,0.409
			l2.508,1.234l0.627,0.204l1.045,0.823l0.627,1.234l1.672,0.819v-0.204l1.044-0.205l0.627-0.205h0.209h0.209l1.672-0.205
			l0.418,0.205v0.205l2.3,0.409l0.835,0.205h1.254h0.209l0.208-0.205l0.627,0.205l1.882,1.646v0.205v0.205v0.205l0.417,0.617h0.209
			l0.627,0.618l0.419,0.41l0.835,0.821h0.209l0.209,0.207l1.046,0.205l2.09,0.821h0.627h0.209h0.209h0.418h0.209h0.627h0.208h0.418
			h0.417h0.418l0.836,0.205h0.209l5.226,0.205h0.208h0.209h0.209l0.208,0.206h0.627v0.206h0.418l0.627,0.409l3.136,1.232
			l1.463,0.207l0.209,0.205v0.616v1.438v0.207v0.205v0.204v0.205h0.208v0.206v0.205h0.209v0.205h0.209v0.206h0.208l-0.208,3.907
			l-0.209,1.232v0.204v0.41v0.207v0.411l0.209,3.908l0.208,0.205v0.205v0.202v1.029l-0.418,0.616h-0.209l-0.627,0.617l-0.209,0.205
			h-0.209l-0.208,0.205l-0.418,0.205h0.209l0.627,0.205h0.418l1.672,0.412h0.209l0.418,0.204h0.209h0.208h0.209h0.208l0.209,0.207
			h0.209h0.209h0.418h0.208h0.209h0.209v0.203h0.209h0.209h0.209h0.209h0.209h0.208h0.209h0.208h0.209h0.209l0.418-0.203h0.418
			l0.836-0.207l0.418-0.204l1.672-0.617l0.626-0.205l1.464-0.412l2.09-0.41l2.09,1.232l5.435,3.291l0.627,0.205h0.209l0.21,0.206
			l1.044,0.206h0.836l5.435,1.438h0.209v-0.408h1.046h0.208h0.209h0.209l0.209,0.205h0.208h0.209l3.554,1.232h0.209l0.208,0.204
			l2.927,1.028v0.619l0.626,0.819l2.091,0.824l1.254,0.409l5.644,4.113l3.345,2.469l3.135,2.263l-0.836,0.205h-2.09h-1.254h-0.418
			h-1.254h-1.254l-0.209,1.646l-0.627,4.935l-0.836,2.471l-0.837,2.058l-0.208,0.409h0.418l3.135,1.231l1.254,0.411l1.672,0.618
			l0.418,0.204v0.413l-0.836,1.851v0.204l1.045,1.232l0.627,0.617h0.209l0.627,0.409l1.465,0.618l2.508,1.027l0.626,0.205
			l-0.417,1.852l-0.418,0.206h-0.209h-0.208h-0.209h-0.209h-0.209h-0.211l-1.045-0.206l-4.808-0.41h-0.209h-0.209h-0.209
			l-1.672,4.319v2.056l-0.418,1.234l-0.209-0.206l-1.254-0.207H235.4v-0.205h-0.209h-1.463l-2.717-0.204h-0.418l-1.881-0.206h-0.418
			h-1.672h-0.418h-1.672h-0.209h-0.208l-2.3-0.204h-0.209h-0.209h-0.209l-0.417-0.205h-0.209h-0.209h-0.418l-0.209-0.206h-0.418
			l-0.418-0.206l-2.509-0.821l-2.089-0.617h-0.209l-0.209-0.205l-1.254-0.206l-0.418-0.206l-1.463-0.408l-0.418-0.206l-1.462-0.411
			l-7.525-2.264l-0.209-0.203l-1.672-0.412l-1.672-0.411l-1.463-0.409h-0.417l-1.463-0.412l-5.644-1.233l-3.135-0.616l-0.209-0.204
			l-1.882-0.206l-0.417-0.205l-1.254-0.204h-0.418l-2.3-0.206l-2.507-0.411h-0.209l-5.017-0.821l-3.135-0.411l-2.717-0.412
			l-3.136-0.408h-0.208h-0.418h-0.209l-0.209-0.207h-0.209h-0.208h-0.209h-0.208l-0.209-0.205h-0.209h-0.208h-0.209l-0.209-0.203
			h-0.209h-0.209l-0.208-0.207h-0.209h-0.418v-0.205h-0.418l-0.418-0.206l-1.881-0.822h-0.209h-0.209v-0.205h-0.209h-0.209
			l-0.209-0.204l-0.208-0.205h-0.209l-1.255-1.232l-0.626-0.413l-1.881-1.438l-0.627-0.617l-1.255-0.823l-0.418-0.205l-1.672-1.026
			l-6.898-4.731l-4.807-3.495l-1.882-1.231l-1.254-1.027l-0.627-0.413h-0.209l-0.209-0.203h-0.209l-0.209-0.207l-0.208-0.206
			l-0.418-0.204l-0.628-0.205h-0.208l-0.418-0.206h-0.209h-0.208l-0.209-0.204h-0.209h-0.209l-0.626-0.204h-0.21l-1.044-0.206
			h-0.209l-0.208,0.206h-0.209h-0.209l-0.209,0.204l-1.464-0.204l-6.061-1.029h-0.208h-0.209h-0.209l-1.464-0.204l-0.209-0.207
			h-0.208h-0.209l-0.208-0.204h-0.209h-0.209l-0.209-0.206h-0.209h-0.209l-0.208-0.206h-0.209h-0.209v-0.205h-0.209h-0.209
			l-0.209-0.205h-0.209h-0.209v-0.205h-0.208h-0.209l-0.209-0.204l-0.208-0.206h-0.209h-0.209l-0.209-0.204l-0.209-0.205h-0.209
			h-0.209v-0.206l-0.836-0.412l-1.464-1.026l-0.208-0.203l-1.672-1.235l-0.209-0.204l-0.209,0.204l-1.462,2.673l-0.418,0.412
			l-1.254,1.233l-2.09,1.026v-0.411l-0.209-1.851v-0.206l-0.209-0.617l-0.418,0.205l-5.017,1.234l-3.135,0.82l-1.882,0.618
			l-0.208,0.205l-0.209-0.205l-1.882-1.027l-2.09-1.233l-3.971-2.265h-0.417l-2.509-1.231h0.418l-0.836-0.617h-0.208l-0.209-0.204
			l-1.463-0.822H74.48l-0.418-0.205l-1.464-0.823l-2.299-1.438l-1.463-1.439l-0.209-0.205l-1.463-1.232h-0.209l-0.626,0.822
			l-0.627,0.617l-0.837,1.025l-1.88,1.853l-0.418,0.41l-1.045,1.028h-0.835l-0.628-0.205l-0.627,1.646l-0.627,0.822l-0.417,0.822
			l-0.209,0.203l-0.418,0.619l-0.418,0.821l-0.418,1.233l-0.417-0.205l-0.627-0.205H55.64h-0.419l-0.418,0.205h-0.418h-0.417
			l-0.418-0.205l-2.508-1.646h-0.209l-0.836-0.617l-1.672-1.438l-0.209-0.411l-0.208-0.411l-0.209-0.41v-0.205v-0.617l2.09-0.822
			l1.253-2.057l0.627-0.205l0.418-0.205l0.418-0.204l0.209-0.207l0.836-0.41l0.627-0.616l0.209-0.205l0.627-0.619l0.418-0.617
			l0.418-0.407v-0.206l0.209-0.412l0.627-1.027l0.417-1.029l1.672-1.438l0.836-0.616l1.046-0.615l-1.672-2.881l-0.418-0.615
			l-2.508-1.028l-0.836-0.206l-0.209,0.206l-1.672-1.028l-0.836-0.617l-3.135-0.821h-0.418h-0.836h-0.627l-0.418-0.205l-3.345-1.438
			l-0.209-0.205l-3.135-3.703l-1.463-3.289l-0.628-1.233l-0.418-1.028v-0.41h0.209l0.209-0.411v-0.617l-0.209-1.231l-0.627-1.439
			l-0.835-1.232l-0.418-1.027l-0.209-0.207v-0.204l0.418-0.615l2.926-3.498h0.418l0.209-0.204h0.208l0.209-0.207l1.044-1.027V374.6
			l-0.835-1.438l-2.718-1.232h-1.881l-3.553-0.207h-0.836h-0.418h-0.419l-1.045,0.412l-1.254,0.204l-0.627,0.206l-0.418,0.206
			h-0.208l-1.045-0.206h-0.627l-0.418-0.206l-1.254-0.204h-2.926l-0.209,0.204l-0.836,0.617l-0.627-0.617l0.627-1.438l1.463-1.853
			l1.882-1.233h0.208l0.209-0.205l2.09-0.207l1.881-0.203l2.508-1.852l0.836-0.824l1.672-2.057l1.045-1.438v-0.206L34.11,360
			l0.209-0.206l0.836-0.821l3.763-3.086h0.208h0.627h0.418v0.207h0.209h0.209l0.627,1.027v0.205l0.208,0.412h0.209l1.254,1.231
			v-1.438l-0.209-4.111l-0.209-0.617l-2.717-1.859l-3.553-2.469l-2.509-1.438h-0.21l-0.835-3.29v-0.411l0.209-0.822l0.418-1.027
			l0.418-0.822v-0.207h-0.21l-0.208-0.204h-0.418l-0.626-0.412l0.209-1.028l0.208-0.41l0.835-0.41l0.837-1.646l0.209-0.412
			l0.208-1.438l0.418-5.145l-0.209-0.41h-0.209h-0.418H34.11l-0.209-0.205v-0.205l-0.419-5.963v-0.206v-0.206v-0.41l0.419-1.44
			l0.209-0.411v-0.207l0.209-0.206v-0.205l0.209-0.207l0.835-1.234l0.418-0.616l0.628-1.234l1.253-3.291v-1.44v-0.41l-0.209-0.206
			V309.4l0.209-2.057v-0.412l0.209-0.411l0.209-0.617l2.927-3.702l1.463-2.468l0.209-0.617l1.463-2.056l0.837-0.823l0.418-0.206
			l0.835-0.412l1.254-0.617l1.881-1.645l2.09-1.851l1.045-0.207l1.254-1.027l0.209-0.206v-0.823l-0.209-0.617l-0.418-1.028
			l-0.836-0.823v-0.617v-2.262l0.209-1.439l0.418-0.617l0.627-1.234l0.209-1.439v-1.851l-0.209-0.617l-0.209-0.411l-0.418-0.411
			v-0.206v-0.411l1.045-1.851l0.418-0.412l1.045-1.029l1.253-1.027l0.418-0.207l0.836-0.411l0.836-0.207l0.417,0.207l0.836,0.411
			l0.836,0.617l3.135,3.084l2.091,2.468l0.626,0.617l1.672,0.823l0.209,0.411l0.418,0.822l-0.208,0.617l1.253,0.618h0.209
			l1.882,0.822l1.672,0.822l3.553,1.646l1.464,0.206l1.253,0.822l2.718,3.497l1.253,1.439l1.254,0.823l3.553,2.262l0.836,1.234
			l1.254,1.233l2.09,1.44l1.672,1.028l1.254,1.851l0.627,1.029l0.627,0.617l2.09,1.028l1.463,1.234l0.417,1.028l1.882,0.617h0.417
			l1.881,0.207l0.627,0.205l3.345,1.44l2.299,1.439l1.673,0.822v0.823l-1.046,2.263l-1.045,1.851l-1.254,2.467l-0.418,1.44
			l-0.209,2.057l-1.254,1.234l-0.627,0.411v0.205l-0.418,1.234l0.209,1.439l0.209,1.646l0.418,1.852l0.418,0.822l0.418,0.615
			l0.209,0.206l0.417,0.412l0.835,0.205l0.837,0.206l0.418,0.412l0.627,1.23l0.627,0.823l1.463,1.233l1.463-1.029l4.598-0.41h1.254
			l1.254-0.41l2.508-1.029l1.254-0.615l2.09-1.438h1.672h2.718l3.135,0.204l0.418,0.412l1.882,0.411h1.254h1.045l3.762,0.618
			l2.927,1.23l0.417,0.207l2.09,0.82l2.091,1.029l4.807,2.264l1.463,0.615h0.627h0.209l0.417-0.205v-0.206l0.209-0.204l0.418-0.412
			l0.418-0.616L161.275,336.1z"/>
		<path id="Hietzing" class="st8" d="M83.44,546.733l-1.464-0.205l-2.299-0.411l-5.226-1.027l-5.644-0.823l-4.18-0.82
			l-1.463-0.205l-5.434-1.029l-5.854-1.028l-1.672-0.206l-0.417,0.205l-1.673,0.823l-1.254,0.618l-5.435,1.645l-0.835-1.852
			l-0.836-2.058l-1.045-2.056l0.418-3.293l0.209-2.261l0.627-5.35l-2.091-7.403l-3.971-5.757l-0.209-0.206l-4.599-2.059
			l-5.225-2.262l-5.435-2.263l-2.926-2.059l-1.672-3.085l-0.209-0.195l0.836-0.616l3.344-2.058l5.017-3.495l0.627-0.618l0.209-4.937
			l0.209-3.086l2.09-2.672l1.672-1.851l1.462-1.235l2.927-2.467l1.044-0.617l4.39-8.021l2.927-2.47l2.926-2.675l0.835-0.616
			l4.181-9.46l1.255-2.468l1.462-7.198v-0.412v-1.024v-4.938l0.627-1.029l1.672-2.262l0.208-1.439l0.627-2.467v-0.205l0.209-0.823
			l2.091-5.759l0.417-0.822l0.418-1.234l0.418-0.82l0.418-0.617l0.209-0.206l0.417-0.822l0.627-0.821l0.627-1.646l0.627,0.205h0.835
			l1.045-1.027l0.418-0.408l1.88-1.854l0.837-1.027l0.627-0.616l0.626-0.822h0.209l1.463,1.231l0.209,0.206l1.463,1.44l2.299,1.438
			l1.464,0.82L74.444,418h0.209l1.463,0.822l0.209,0.205h0.209l0.836,0.617h-0.41l2.509,1.232h0.417l3.972,2.262l2.09,1.234
			l1.882,1.029l0.208,0.205l0.208-0.205l1.882-0.619l3.135-0.823l5.017-1.231l0.418-0.205l0.209,0.615v0.206l0.209,1.853v0.412
			l2.09-1.03l1.254-1.232l0.418-0.411l1.463-2.674l0.209-0.203l0.209,0.203l1.672,1.233l0.208,0.206l1.464,1.027l0.836,0.41v0.205
			h0.209h0.208l0.209,0.205l0.209,0.206h0.209h0.209l0.208,0.204l0.209,0.207h0.209h0.208v0.206h0.209h0.209l0.208,0.203h0.209
			h0.208v0.206h0.209h0.209l0.209,0.207h0.209h0.209l0.209,0.203h0.209h0.208l0.209,0.205h0.209h0.209l0.208,0.206l1.464,0.203
			h0.209h0.209h0.208l6.062,1.03l1.463,0.205l0.209-0.205h0.209h0.209l0.208-0.206h0.209l1.044,0.206h0.21l0.626,0.205h0.209h0.209
			l0.208,0.204h0.209h0.209l0.418,0.207h0.209l0.627,0.205l0.418,0.203l0.208,0.207l0.209,0.204h0.209l0.209,0.205h0.208
			l0.627,0.412l1.254,1.027l1.881,1.23l4.807,3.496l6.899,4.731l1.672,1.028l0.418,0.203l1.254,0.822l0.627,0.618l1.881,1.439
			l0.626,0.409l1.255,1.232h0.209l0.208,0.206l0.209,0.206h0.209h0.208v0.206h0.209h0.209l1.881,0.821l0.418,0.204h0.418v0.205
			h0.418h0.209l0.208,0.206h0.209h0.208l0.209,0.204h0.209h0.209h0.209l0.209,0.207h0.208h0.209h0.208h0.209l0.209,0.205h0.209
			h0.418h0.208l3.136,0.41l2.717,0.41l3.135,0.412l5.017,0.819h0.209l2.507,0.413l2.3,0.204h0.418l1.254,0.206l0.417,0.207
			l1.882,0.203l0.209,0.206l3.135,0.616l5.644,1.232l1.463,0.411h0.418l1.463,0.411l1.672,0.411l1.673,0.41l0.208,0.205l7.525,2.263
			l1.462,0.412l0.419,0.205l1.462,0.41l0.418,0.204l1.254,0.206l0.209,0.205h0.209l2.089,0.618l2.509,0.82l0.418,0.206h0.418
			l0.209,0.206h0.418h0.209h0.209l0.418,0.205h0.208h0.209h0.209l2.3,0.204h0.208h0.209h1.672h0.418h1.672h0.418l1.881,0.206h0.418
			l2.717,0.205h1.463h0.209v0.204h0.209l1.254,0.207l0.208,0.204l1.464,0.411h0.626l0.209,0.205l1.672,0.412h0.209h0.209
			l1.463,0.616l0.417,0.204l1.045,0.41l0.627,0.204l2.09,0.823l-0.836,2.263l-0.626,1.854l-0.418,4.521l-8.779,18.1v0.206h-0.208
			v0.207h-0.209l-0.208,0.203h-0.209v0.205h-0.209v0.207h-0.209v0.203h-0.209v0.204l-1.672,2.06l-4.807,5.553l-1.882,2.469
			l-1.463-0.412l-2.717-1.028l-1.046-0.408l-4.807-1.646l-0.209-0.207l-1.253-1.644l-0.209-0.207l-0.417,0.412l-0.627,0.615
			l-0.209,0.411l-0.836,0.617l-0.418,0.616l-0.418,0.411l-0.208,0.41l-0.209,0.207h-0.209v0.203l-0.209,0.204v0.207v0.411h-0.209
			l-0.627,1.027l-3.135-0.412h-0.208l-1.254,3.907v0.207l-0.418,1.438l-4.181,10.487l-1.045,2.058l-0.209,0.616l-0.627,1.854
			l-0.417-0.207v0.411l-0.209,0.204v0.206v0.205v0.205v0.206l-0.208,0.41v0.206l-0.209,4.729v0.822v1.852v1.026l-2.927,1.439
			l-3.762,2.058l0.209,0.615l-0.627,0.206v0.206h-0.209h-0.209l-0.626-2.057l-1.254-3.703l-0.209-0.204l-0.208-0.411l-0.418-1.026
			h-0.209l-0.209,0.203h-0.418l-2.509,0.617l-1.672,0.206l-1.672,0.207l-2.299-1.441l-0.836-0.616l1.045-1.439v-0.205l1.045-1.851
			l0.836-1.029l-1.045-1.027l-0.209-0.204l-1.881-1.852l-0.417,0.616l-1.045,1.646l-2.299,3.907l-3.553,5.759l-2.718,4.524
			l-0.208,0.617l-0.418-0.206l-2.091-1.439l-5.644-3.496l-2.508-1.645l-3.135-1.646l-3.344-1.852l-6.898-0.821l-1.044,0.205h-0.628
			l-2.299,0.412l-6.062,5.346l-0.627,0.411v0.204h-0.209l-1.463,0.413l-6.061,2.055l-1.882,0.643h-0.209l-4.808,2.672l-8.361,4.73
			l-1.254,0.821h-0.209l-9.824,5.759l-1.463,1.234l-1.254,1.23l-0.836,0.824l-3.972-3.701l-2.509-2.469l-0.626-0.823l-1.882-1.85
			h-0.836L83.44,546.733z"/>
		<path id="Meidling" class="st8" d="M273.225,531.517l-1.045,1.232l-1.881,2.056l-2.091,2.058l-1.253,1.439l-0.627,0.617
			l-0.209,0.408l-0.208,0.207l-0.417,0.411l-0.209,0.205l-0.21,0.409l-0.209,0.206h-0.836l-0.835-0.616l-1.046-0.41l-1.043-0.617
			l-1.045-0.205l-1.254-0.618L254,536.859l-1.255-0.206l-1.252-0.203h-1.465h-0.208v0.203l-0.209,0.206v0.207l-0.209,0.203v0.204
			h-0.209l-3.553,0.618h-0.417l-0.209-1.232l-0.208-1.854l-2.09,0.619h-0.627l-1.044,0.409h-0.418v-0.616l0.209-1.028h-0.209
			l-1.045-0.206l-1.881-0.407l-2.091-0.412l-2.507-0.41l-0.836-0.205l-0.418-0.207l-0.627-0.205h-0.418l-0.627-0.204l-2.299-1.028
			h-0.209h-0.418l-1.045-0.205l-0.418-0.206h-0.627l-0.835-0.204l-0.627-0.204l-0.418-0.207h-0.418l-0.626-0.207l-0.209-0.202
			l-1.254-0.413l-0.208-0.204l-0.627-0.205l-1.463,1.025l-0.209,0.207l-1.463,1.234l-0.209,0.205l-0.627,0.408l-0.627,0.824
			l-0.627,0.409l-1.254,1.233l-0.627,0.41l-1.044,1.028v0.204l-0.627,0.412l-2.291,2.469l-5.853-2.469l-2.09-0.617l0.836-2.263
			l0.418-0.822l0.418-1.029l0.417-1.026v-0.204l0.209-0.205v-0.413l0.209-0.409l0.208-0.411l0.209-0.205l0.208-0.41l0.209-0.207
			l0.209-0.408l0.209-0.413l0.209-0.203l0.209-0.412l0.208-0.205l0.209-0.41l0.208-0.206l0.209-0.412l0.418-0.408l-2.508-0.205
			l-3.762-0.617l-0.627-0.205h-0.209l0.628-1.853l0.209-0.615l1.045-2.059l4.18-10.485l0.418-1.441v-0.209l1.254-3.907h0.209
			l3.135,0.41l0.627-1.028h0.209v-0.41v-0.204l0.208-0.205v-0.21h0.209l0.209-0.206l0.209-0.409l0.418-0.413l0.418-0.616
			l0.836-0.617l0.209-0.411l0.627-0.615l0.417-0.41l0.209,0.205l1.254,1.646l0.209,0.205l4.807,1.646l1.045,0.41l2.718,1.026
			l1.463,0.412l1.881-2.468l4.807-5.554l1.672-2.058v-0.206h0.209v-0.205h0.208v-0.206h0.209v-0.203h0.209l0.209-0.204h0.209v-0.207
			h0.208v-0.206l8.78-18.098l0.417-4.522l0.627-1.853l0.836-2.263l0.417,0.205l6.48,2.879l0.209,0.206l1.672,0.617l0.417,0.205
			l1.881,0.617l0.209,0.204h0.417h0.208h0.207l0.418,0.206h0.417h1.045h0.836h0.836h1.044h0.837h0.208h0.208l1.672-0.206h0.209
			h0.209l0.209-0.204h0.207l0.836-0.41h0.209h0.208l1.046-0.618l0.417-0.41l0.418-0.206l0.417-0.41l0.418-0.206l0.208-0.206
			l1.044-1.232l0.419-0.616l0.209-0.205l0.417-0.412l0.209-0.41l0.417-0.616l0.418-0.822v-0.204l0.209-0.411l0.208-0.411l0.418-0.41
			l0.417-0.618l0.417-0.409l0.209-0.205l0.417-0.411l0.418-0.205l0.417-0.41l0.418-0.206l0.418-0.205h0.208l0.628-0.206l0.836-0.205
			h0.835h2.09l0.418,0.618l0.627,1.233l3.762,6.169l2.717,4.317l2.926,5.142l2.508,4.523l0.209,0.205l0.209,0.822l-1.881,0.617
			l-1.254,0.41l-0.627,0.206l-0.418,0.206h-0.208v0.202l-0.628,0.412l-0.627,0.412l-0.615,0.404l-1.881,1.233l-1.672,1.232
			l-0.627,0.412l-1.672,0.822v-0.206l-1.464,0.616l0.418,1.439l0.417,1.438l0.209-0.205h0.208h1.672l1.673,0.819v1.854h1.671
			l1.255,0.206v0.204l1.463,2.47l0.418,1.232l0.208,0.203v0.207v0.203l0.208,0.413v0.205l0.209,0.204v0.412h-0.209h-0.208
			l-0.417,0.206h-0.627h-0.418h-0.209l-0.417,0.204h-0.208l-0.626,1.646l-1.045,2.672h-0.209h-0.209l-0.208-0.201h-0.209h-0.209
			v-0.207h-0.209h-0.209h-0.209l-0.209-0.206h-0.209h-0.208h-0.209l-0.209-0.205h-0.209h-0.208h-0.209l-0.21-0.203l-9.197-1.646
			l-0.209,0.411l-0.626,1.439l-1.465,3.495l-0.417,0.616v0.205l-0.418,0.822l-3.136,6.17l-1.881,3.908l-0.626,2.469v0.205
			l1.462,1.44l0.418,0.41l0.418,0.408v0.207l0.209,0.204l1.045,1.854h0.207v0.204v0.205l0.837,1.44v0.203l1.044,2.675
			L273.225,531.517z"/>
		<path id="Simmering" class="st8" d="M373.966,491.206l2.717,0.205l0.208-1.232l1.045-6.583l2.092-1.646l0.627-0.409
			l1.463-1.233l0.836-1.231l1.044-1.646l1.464-1.851l0.417,0.206l0.418,0.204l1.253-1.439v-0.206h-0.209l-0.627-0.616l1.254-1.438
			l0.626-1.027l-2.09-3.291l0.629-0.412l0.835-0.614l1.462-1.028l0.627,0.821l0.209,0.207l1.046,1.23h0.209v-0.204l0.207-0.206
			h0.209v-0.206h0.211v-0.204h0.207l0.837,0.41l4.807,2.058l2.09,1.025l0.627,0.207l2.718,1.027l1.252-1.851l2.092-3.29l0.209-0.206
			v-0.206h0.627l0.627,0.412h0.418l0.209,0.206l1.879-0.412v-0.206l0.209-0.41l0.209-0.205l0.209-0.206V465.5l0.417-0.204h0.209
			l0.627,0.204l0.627,0.205l1.464,0.411h0.208l0.837-3.086l0.418-1.232l0.42,0.41l0.627,0.618l0.416,0.41l0.628,0.206l0.627,0.409
			l0.417,0.205l0.836,0.411l7.104,2.264h0.418l0.417,0.204h0.208l0.628,0.206h0.417h0.21h0.207h0.209l0.209-0.206h0.209l0.209-0.204
			l0.207-0.616l0.629-0.617l0.209-0.205l0.209-0.206h0.209h0.209h0.207h0.209h0.209l0.627,0.206l0.209-0.206l0.417-0.823l2.3,0.823
			l6.27,2.673l3.556,1.646l2.508,1.027l0.836,0.408l13.797,5.965l5.228,2.267h0.207l2.511,1.23l1.672,0.823l7.94,3.291l1.675,0.616
			l0.627,0.206l2.926,1.438l7.524,3.288h0.211l0.205,0.207l0.42,0.206l0.418,0.203l0.418,0.207l0.416,0.207l0.419,0.203l0.417,0.205
			l0.418,0.207l0.417,0.205l0.418,0.205l0.416,0.203l6.479,3.702l3.973,2.264l0.209,0.205l0.419,0.204h0.207l0.209,0.206l0.21,0.204
			l0.416,0.206l0.21,0.206h0.209l0.209,0.206l0.208,0.203l0.418,0.207l2.09,1.438l2.926,1.854l4.601,2.467l1.882,1.234l1.043,0.616
			l1.674,1.028l2.09,0.821l0.417,0.206l2.927,1.438l1.881,0.821l1.883,1.029l2.09,1.234l1.881,1.024h0.209v0.207l2.091,1.234
			l1.043,0.406l2.928-2.877l0.418,0.204l1.464,0.822l1.882,1.233l1.463,1.028l7.107,4.729l2.925,1.853l1.465,0.821l11.286,7.198
			l0.21,0.204l-0.21,0.206l-3.763,1.026l-4.392,1.233l-2.924,0.823h-0.209h-0.21l-0.208,0.204l-8.362,2.058l-5.643,1.231
			l-0.628-1.025l-2.926-1.646l-1.674-1.233l-0.628-0.615l-0.628-0.414l-0.208-0.204l-1.672-1.231l-0.626,0.408l-0.837,0.619
			l-0.209,0.204l-0.627,0.618l-2.091,2.469l-1.046,1.23l-0.207,0.205l-0.21,0.207l-0.209,0.408L533,539.312l-0.835,0.823
			l-0.208,0.205l-1.674,1.439l-1.045-0.409l-1.254-0.206l-0.838-0.207l-2.718-0.821h-0.188l-7.524-1.852v0.205l0.417,0.822h-0.208
			l-0.628-0.205l-2.301-0.822l-0.836-0.616v0.205l0.211,1.646l-0.211,1.232l-0.208,1.027l-0.418,0.821l-0.836,1.646l-0.418,0.617
			l-1.464,1.438l-1.255,1.233l-0.836,0.822l-0.417,0.204l-0.418,0.617l-0.628,0.617l-0.418,0.409l-0.627,0.412l-0.208,0.41
			l-0.21,0.41l-2.088,2.058l-1.046,1.026l-0.628,0.618l-1.881,1.851l-0.418,0.412l-1.464,1.438l-0.211,0.207l-3.553,3.702
			l-0.417,0.409l0.627,0.616h0.209l0.21,0.204l-0.419,0.412l-2.09,2.265l-1.254,1.438l-0.417,0.412l-2.717,2.673l-1.882,1.233
			l-2.302,1.646l-3.345,2.469l-2.508,2.674h-0.209l-0.208,0.205l-0.418,0.411l-1.253,0.822l-0.839,0.41l-0.627,0.412l-0.627,0.204
			l-0.627,0.412l-0.628,0.203l-2.509,0.204l-0.417,0.206h-1.044h-0.209l-7.943,0.616l-2.926,0.206l-1.88,0.206l-5.436,0.206
			l-6.688,0.616l-1.882-4.318l-0.208-0.411l-0.837-2.056l-0.208-0.412l-0.628-1.439l-0.835-1.645l-0.21-0.413l-0.627-1.849
			l-1.463-3.292l-0.208-0.204l-3.346-7.199l-0.417-0.409l-1.253-1.851l-1.463-1.646l-1.673-2.057l-1.463-2.058v-0.203l-1.464-1.854
			L423.3,549.6l-2.717-3.497l-1.674-2.056l-4.391-5.346l-10.239-13.163l-0.209-0.204l-4.6-5.966l-5.018-6.373l-0.626-0.822
			l-0.209-0.206l-1.254-1.439l-0.626-0.822l-0.838-0.822l-1.881-1.849l-0.418-0.413l-2.717-2.879l-7.313-7.196l-1.673-1.852v-0.412
			l-1.046-1.025l-0.209-0.413l-1.045-0.821l-0.417-0.409L373.966,491.206L373.966,491.206z"/>
		<path id="Favoriten" class="st8" d="M323.809,607.616l0.835-3.496v-0.206l0.628-3.084h0.416h0.211l0.627-3.084l0.418-0.826
			l0.209-1.438l2.299-5.351l0.418-0.203l1.88-4.937l0.628-1.646v-0.202h-0.419h-0.208l-0.418-0.206l1.254-3.29l1.043-2.674
			l0.836-2.266l0.628-1.645l0.208-0.617l0.209,0.206l0.626,0.617l0.629,0.204l1.462,0.409l2.51-5.758v-0.206l2.301-7.197
			l-1.673-0.616l-2.509-0.822h-0.419h-0.209h-0.209l-4.39-1.646l-2.299-1.024l-2.927-1.028l-5.435-1.852l-5.435-2.058l-0.627-0.205
			l-1.254-0.207l-0.418-0.203l-0.628-0.206l-1.046-0.205h-1.044h-2.717l-1.881-0.203l-5.016-0.207l-3.349-0.207l-3.551-0.203
			l-2.718-0.205l-4.599-1.233l-2.718-0.616l-0.626-0.207l-2.09-0.616l-0.836-0.206l-1.046-0.616l-0.835-0.617l-0.836-0.41
			l-0.836-0.821l-0.208-0.206l-0.209-0.41l-0.208-0.206l-0.419-0.823l-0.627-0.819l-1.045-2.881l-0.627-2.057l-0.626-1.231
			l-1.672-4.114l-0.209-0.204l-1.045-2.675v-0.204l-0.835-1.44V526.8v-0.206h-0.209l-1.043-1.851l-0.209-0.205v-0.205l-0.418-0.41
			l-0.417-0.413l-1.463-1.438v-0.206l0.627-2.467l1.882-3.908l3.135-6.169l0.417-0.823v-0.206l0.417-0.616l1.463-3.496l0.628-1.438
			l0.207-0.411l9.199,1.646l0.209,0.205h0.208h0.209h0.209l0.209,0.206h0.208h0.209h0.21l0.209,0.206h0.208h0.209h0.208v0.203h0.209
			h0.208l0.209,0.207h0.209h0.209l1.043-2.674l0.628-1.646h0.208l0.417-0.207h0.209h0.417h0.628l0.417-0.201h0.209h0.209v-0.412
			l-0.209-0.205v-0.204l-0.209-0.412v-0.205v-0.205l-0.209-0.207l-0.417-1.232l-1.465-2.469v-0.204l-1.253-0.203h-1.672v-1.854
			l-1.673-0.822h-1.671H284.3l-0.209,0.205l-0.417-1.438l-0.418-1.439l1.463-0.616v0.203l1.672-0.819l0.628-0.411l1.672-1.234
			l1.881-1.23l0.626-0.411l0.627-0.41l0.628-0.412v-0.206h0.208l0.418-0.203l0.626-0.206l1.255-0.412l1.88-0.614l1.044-0.206
			l0.418-0.205l2.72-0.206l2.924-0.41h1.465l0.626-0.206l0.626-0.205h0.209h0.209h0.208h0.208v-0.205h0.209h0.417l1.463-0.616
			l0.627-0.206l1.463-0.615l1.253-0.412l1.048-0.411h0.208l0.208-0.204l1.673-0.618l0.417-0.205l3.344-1.852l1.463-0.822
			l0.419-0.205l1.672-0.822l0.627-0.408h0.208l1.673-0.823l0.211-0.207h0.206l1.674-0.82l1.253-0.617l4.599-2.265h0.209h0.208h0.208
			l0.628-0.204l1.673-0.618l0.417-0.205l-0.209-1.231l0.209-0.206v-0.205v-0.206l0.209-0.205l4.182-1.852l0.209-0.205h0.417
			l4.809-2.264l0.627-0.203l2.091-0.823l0.417,0.618l0.628,1.851v0.205h0.208v0.204l0.209,0.207v0.204l0.21,0.206l1.046,1.231
			l0.208,0.412l0.836,1.027l1.254,1.645l0.209,0.207v0.205l0.208,0.204v0.206v0.206l0.209,0.204v0.413l0.628,1.438l1.254,2.059
			l7.734,9.255l2.09,2.264l3.554,3.7l2.508,2.264l0.836,0.821v0.206l0.209,0.411l0.417,0.41l1.045,0.821l0.209,0.411l1.043,1.028
			v0.41l1.675,1.851l7.313,7.199l2.717,2.878l0.417,0.41l1.883,1.854l0.836,0.821l0.628,0.823l1.253,1.438l0.209,0.203l0.626,0.824
			l5.017,6.373l4.601,5.963l0.209,0.207l10.239,13.163l4.392,5.346l1.672,2.059l2.717,3.496l1.254,1.645l1.464,1.852v0.206
			l1.462,2.057l1.673,2.057l1.466,1.646l1.252,1.851l0.419,0.411l3.344,7.197l0.208,0.206l1.464,3.292l0.626,1.851l0.209,0.408
			l0.836,1.646l0.626,1.44l0.209,0.41l0.837,2.057l0.207,0.41l1.884,4.319h-0.21H441.9l-2.303,0.205h-2.088l-0.418,9.665
			l-0.208,2.88v0.615l0.208,2.057v0.207v0.205l0.835,1.646h0.419l0.626-0.207l0.209,2.469v0.616v0.822v1.234v1.233v1.851v0.205
			v0.206v0.205v0.409v2.264v0.822v0.204l0.209,1.441l0.208,1.646l0.21,1.438l1.464,3.291l0.838,1.852l0.208,0.41l0.627,1.646
			l1.253,3.29l-1.253-0.411l-1.673-0.615l-3.763-0.823l-0.628-0.204l-2.089-0.412h-0.837l-1.672-0.409l-0.419-0.207h-0.417
			l-1.671-0.616l-0.418-0.204h-0.418l-0.627-0.204l-3.347-1.235l-0.208-0.205l-1.254-0.616h-0.208l-0.417-0.206l-0.629-0.409
			l-0.835-0.411l-1.045-0.617l-0.627,1.234l-0.417,1.025l-0.21,0.618l-0.209,0.204l-0.208,0.205l-0.209,0.413l-0.627,0.616
			l-1.045,1.233l-0.417,0.408l-0.209,0.207l-6.898,0.204l-7.734,0.411l0.209,1.026l0.418,1.233l0.209,0.411l0.209,0.617l0.836,1.851
			h-0.208l-3.764,0.411l-3.762,0.617l-0.209-0.617l-0.208-0.617l-0.208-0.616l-0.209-1.027l-0.419-1.231l-0.417-1.233l-0.209-0.207
			V628.8l-0.417-0.411l-0.417-0.207l-0.209-0.204l-0.417-0.202h-0.21l-0.835-0.412l-0.417-0.204l-0.836-1.442l0.208-0.616v-0.409
			v-0.41h-0.418l-2.927-0.822l-2.301-0.617l-3.344-1.027l-0.417-0.205l-2.3-0.616l-3.973-1.028l-1.047-0.206l-1.044-0.206
			l-0.628-0.204l-3.553-0.821l-1.673-0.411v-0.206v-0.41l-0.417-0.206l-0.208-0.206l-0.417-0.203l-3.555-1.027l-5.018-1.646
			l-1.463-0.41l-2.509-0.411l-1.881-0.205l-2.301-0.207l-1.882-0.406h-0.418l-1.672-0.414l-3.136-0.409l-4.599-0.206l-3.345-0.409
			l-4.181-1.027l-0.836-0.206H328.2l-1.252-0.41l-2.718-1.028L323.809,607.616z"/>
		<path id="Alsergrund" class="st8" d="M303.743,350.529l0.417-0.411h0.209l0.627,0.616v-0.205h0.209h0.209v-0.206h0.208v-0.205
			h0.209v-0.207h0.209v-0.204h0.209v-0.205l0.208-0.207v-0.206h0.209l0.209-0.821l0.417-0.615v-0.617h0.209v-0.205v-0.206
			l0.418-2.058l0.626-3.7v-0.206h0.209v-0.206v-0.205h0.209h0.208v-0.206h0.209h0.209h3.136l4.181-0.206v0.206v0.206v0.205
			l-0.208,0.206v0.206v0.204v0.205v0.205l-0.209,0.205v0.207v0.207v0.203v0.206v0.206v0.205h-0.209v0.206v0.206v0.204v0.207v0.206
			v0.203v0.207v0.207l-0.209,0.203v0.207v0.207v0.202v0.206v0.206v0.204v0.207v0.206v0.205v0.204v0.205v0.205h0.209v0.207v0.205
			v0.205v0.207v0.205l0.209,0.204v0.207v0.205v0.205l0.209,0.206v0.207v0.203v0.205h0.208v0.207v0.205v0.207v0.205h0.209
			l1.882,5.555v0.203h0.208v0.205v0.207v0.205h0.208v0.204v0.206h0.209v0.205v0.206h0.208v0.206v0.206h0.209v0.204v0.207h0.208
			v0.205l0.208,0.205v0.205h0.209v0.205l0.209,0.205v0.207h0.208v0.205l0.21,0.205v0.207h0.209v0.204h0.209v0.205l0.835,1.028
			l0.836,0.822h0.209l1.255,1.232l0.209,0.412l0.208,0.205v0.205h0.208v0.205h0.209v0.205l0.209,0.207l0.417,1.026l0.209,0.207
			v0.205v0.205h0.209v0.206v0.205l0.208,0.205v0.207v0.205l0.208,0.205v0.207v0.204v0.205l0.209,0.205v0.205v0.206v0.206v0.206
			v0.205l0.209,0.205v0.205v0.207v0.205v0.205v0.205v0.207v0.205v0.205v0.205v0.205v0.207v0.205v0.205v0.207v0.203v0.207v0.205
			v0.206v0.205v0.205v0.205v0.206v0.206v0.204v0.205v0.207v0.205l0.208,0.412v0.203v0.205v0.207v0.205v0.207v0.205v0.205v0.205
			h0.208v0.207v0.205v0.205v0.205v0.205l0.209,0.207v0.207v0.202v0.205l0.209,0.207v0.205v0.204l0.416,0.618l0.209,0.204
			l0.209,0.207l0.208,0.41v0.203h0.208v0.205l0.209,0.207l0.209,0.207l0.417,0.615l0.836,0.617l-1.253,1.438l-12.332,8.434
			l-2.717,1.853l-1.463-0.207l-5.228-1.024l-1.045-0.822v-0.207l-3.344-0.205l-2.717-0.203l-2.093-0.207l-3.971-0.617l-4.39-0.41
			l-0.836,0.205h-0.209l-6.688,0.412h-1.045l1.882-5.144l0.209-0.411l0.208-1.027l0.209-0.205v-0.207v-0.205l0.209-0.82l0.209-0.206
			v-0.205h-0.418l2.09-7.813v-0.207l0.417-0.41l0.209-0.205l5.225-2.055h0.209v0.202h0.209v0.205l0.208-0.205h0.209l0.209-0.202
			h0.208l0.208-0.207h0.209v-0.207h0.209l0.208-0.205l0.208-0.205l0.209-0.205l0.208-0.207l0.208-0.41v-0.206l0.208-0.409
			l0.209-0.207v-0.412v-0.205l0.209-0.41l0.208-2.467l0.836-4.937l0.836-5.759v-0.617l0.208-0.411v-0.207v-0.205h0.209v-0.204
			v-0.207l0.208-0.205v-0.205l0.417-0.412v-0.205h0.209l0.418-0.412v-0.203h0.208l1.255-1.029l0.838-0.409l0.417-0.207l0.208-0.204
			h0.209l0.209-0.205l0.626-0.617L303.743,350.529L303.743,350.529z"/>
		<path id="Josefstadt" class="st8" d="M279.287,399.896v-0.205l0.207-0.412l0.209-0.821l0.418-1.028l1.672-4.729l0.209-0.204
			h1.043l6.69-0.412h0.208l0.838-0.205l4.388,0.411l3.973,0.618l2.093,0.203l2.716,0.205l3.346,0.205v0.205l1.043,0.823
			l-0.208,1.646l-1.255,8.021l-0.417,2.672l-0.209,1.854v0.615l0.417,2.06v0.206v0.203v0.205h0.208v0.205v0.203l0.21,0.207
			l0.209,0.41l-6.063,1.233h-0.208l-1.256,0.206l-3.554-0.206l-2.298-0.616l-3.973-1.234l-2.299-0.615l-8.57-2.674h-0.209
			l-1.045-0.412l0.209-0.202v-0.207l0.209-0.205v-0.204v-0.207l0.209-0.205V407.3v-0.207v-0.206v-0.205l0.208-0.41v-0.41
			l0.209-3.084v-0.411v-0.204v-0.207v-0.616v-0.206l0.209-0.822L279.287,399.896z"/>
		<path id="Neubau" class="st8" d="M275.524,419.835l-0.209-3.086v-0.409v-0.206v-0.206v-0.205v-0.207v-0.203v-0.205v-0.205
			v-0.204h0.209v-0.206v-0.206v-0.205l0.209-0.206v-0.204l1.463-3.702l0.418-0.822l0.208-0.41l1.046,0.41h0.209l8.57,2.674
			l2.299,0.617l3.973,1.233l2.299,0.616l3.554,0.205l1.255-0.205h0.209l6.062-1.232l4.182,4.523l1.672,1.852l1.672,1.853
			l2.091,2.263l-0.629,0.822l-1.045,1.438h-0.208v0.205h-0.209v0.206h-0.209v0.205h-0.209v0.206h-0.208v0.206h-0.209l-0.209,0.204
			h-0.209v0.205h-0.207l-0.209,0.207h-0.209h-0.209v0.205h-0.208h-0.209l-1.465,0.41l-3.973,1.439l-3.553,1.646l-1.046,0.615
			l-2.51,1.233l-1.88,1.233l-0.416,0.204l-2.508,1.438l-1.881,0.823l-1.882,0.617l-1.252,0.408l-2.3,0.617l-3.972,1.03l-3.344,0.82
			l-0.209,0.206l-0.418,0.204l-0.627-2.056l-0.627-2.058l-0.418-1.853v-0.41l-0.208-0.409l-0.417-1.44v-0.409l-0.418-1.232v0.204
			l-0.417-2.058v-0.203l-0.627-2.676l-0.209-1.645v-0.411l-0.209-3.291v-0.826h-0.01V419.835L275.524,419.835z"/>
		<path id="Mariahilf" class="st8" d="M283.467,458.918h-2.091h-0.836l-0.836,0.206l-0.627,0.206h-0.209l-0.836-1.234
			l-1.881-4.523l-0.207-0.617l0.417-1.234l0.418-1.23l0.417-0.616l1.881-5.347l0.627-2.47h0.209v-0.207v-0.201l-0.209-0.822v-0.206
			l0.418-0.206l0.209-0.205l3.345-0.823l3.971-1.025l2.3-0.618l1.253-0.41l1.882-0.618l1.881-0.822l2.508-1.438l0.417-0.204
			l1.879-1.234l2.51-1.231l1.045-0.618l3.554-1.646l3.973-1.438l1.463-0.409h0.21h0.207v-0.206h0.211h0.209l0.209-0.207h0.207
			v-0.203h0.209l0.209-0.206h0.209v-0.205h0.208v-0.205h0.209v-0.206h0.209v-0.204h0.209v-0.206h0.207l1.046-1.439l0.627-0.821
			l0.209,0.409l1.464,1.029l1.253,1.027l1.045,0.821h0.209l1.463,1.646l0.209,0.207l1.671,1.851l-0.209,0.41l-0.209,0.205
			l-0.208,0.204l-0.418,0.413l-2.927,2.263l-0.208,0.205l-0.629,0.616l-0.417,0.206l-0.208,0.206l-0.836,0.821l-0.627,0.409
			l-0.418,0.205l-0.209,0.206H316.7l-0.209,0.206h-0.209l-0.417,0.205l-0.209,0.205h-0.209l-0.417,0.206l-0.836,0.205l-0.418,0.205
			h-0.417l-0.209,0.205l-0.209-0.41l-0.838,0.205l-0.627,0.205l-2.301,0.617h-0.207h-0.209v0.205h-0.209h-0.209l-0.208,0.204h-0.209
			l-0.209,0.207h-0.209L307.3,439.8l-0.209,0.204h-0.209l-0.209,0.207l-0.208,0.207l-0.209,0.204l-0.209,0.206l-0.209,0.205
			l-0.208,0.203l-0.209,0.204v0.207l-0.209,0.204v0.206l-0.212,0.2v0.205l-0.208,0.204v0.207v0.203v0.205h-0.209v0.207l0.209,1.231
			v0.41v0.206v0.411v1.027v0.207v0.206v0.202v0.205v0.206v0.205v0.205v0.205v0.205l-0.209,0.207v0.206v0.204v0.205h-0.208v0.205
			v0.203v0.206h-0.209l-0.208,0.824l-0.208,0.204v0.207l-0.627,0.822v0.205v0.207l-0.836,1.023h-0.209v0.206l-0.418,0.617h-0.208
			v0.207h-0.209v0.203h-0.209l-0.209,0.205h-0.208v0.207h-0.209l-0.209,0.204h-0.209v0.206h-0.208h-0.209l-0.21,0.207h-0.21h-0.208
			v0.202h-0.209h-0.418l-3.761,1.028l-2.09,0.617h-0.417l-1.881,0.41l-0.209,0.205h-0.209h-0.209h-0.208l-2.3,0.205h-0.626
			l-2.717,0.411h-0.221v0.02h-0.004V458.918z"/>
		<path id="Margareten" class="st8" d="M296.845,481.951l-0.209-0.821l-0.21-0.204l-2.508-4.523l-2.926-5.143l-2.717-4.317
			l-3.761-6.172l-0.628-1.23l-0.417-0.619h0.209l2.717-0.411h0.627l2.299-0.204h0.209h0.209h0.208l0.209-0.207l1.882-0.408h0.418
			l2.088-0.617l3.763-1.028h0.419h0.21v-0.204h0.209h0.209l0.207-0.206h0.209h0.209v-0.205h0.209l0.208-0.205h0.209v-0.21h0.209
			l0.209-0.206h0.208v-0.203h0.208V454.4h0.209l0.417-0.618v-0.206h0.209l0.836-1.027v-0.205v-0.204l0.627-0.822v-0.204l0.209-0.205
			l0.209-0.823h0.209v-0.208v-0.205v-0.205h0.208v-0.206v-0.204v-0.206l0.208-0.205v-0.204v-0.205v-0.206v-0.205v-0.206v-0.205
			v-0.206v-0.204v-0.206v-1.031v-0.41v-0.206v-0.409l-0.208-1.234v-0.205h0.208v-0.207v-0.205v-0.203l0.209-0.206v-0.204
			l0.209-0.206v-0.207l0.208-0.203v-0.205l0.209-0.207l0.209-0.205l0.209-0.204l0.208-0.206l0.208-0.206l0.209-0.205l0.209-0.204
			h0.207l0.209-0.206l0.208-0.205h0.21l0.208-0.204h0.208l0.209-0.205h0.209h0.208v-0.207h0.209h0.209l2.301-0.617l0.628-0.205
			l0.837-0.205l0.207,0.41l2.717,4.729l1.672,1.646l-0.207,0.615l3.761,4.318l-1.044,2.057l-2.09,3.085l3.553,4.523l0.836,0.822
			l1.674,2.468l3.345,5.143l1.881,2.675l-1.254,0.617l-1.672,0.821h-0.208l-0.209,0.204l-1.672,0.822h-0.209l-0.627,0.411
			l-1.674,0.823l-0.418,0.205l-1.463,0.821l-3.344,1.853l-0.418,0.204l-1.672,0.618l-0.209,0.204h-0.208l-1.044,0.411l-1.255,0.41
			l-1.463,0.617l-0.628,0.205l-1.465,0.618h-0.417h-0.209v0.204h-0.209h-0.209h-0.208h-0.208l-0.627,0.206l-0.629,0.206h-1.463
			l-2.927,0.41l-2.716,0.204l-0.418,0.204L296.845,481.951z"/>
		<path id="Wieden" class="st8" d="M329.243,470.436l-1.879-2.674l-3.348-5.141l-1.672-2.469l-0.836-0.822l-3.554-4.525
			l2.09-3.086l1.046-2.055l-3.763-4.318l0.208-0.614l-1.672-1.648l-2.717-4.729l0.209-0.205h0.417l0.418-0.205l0.836-0.205
			l0.417-0.207h0.209l0.208-0.204l0.417-0.205h0.209l0.209-0.206h0.208l0.209-0.206l0.418-0.205l0.627-0.41l0.836-0.82l0.209-0.206
			l0.417-0.206l0.628-0.616l0.208-0.205l2.927-2.263l0.417-0.413l0.208-0.204l0.209-0.205v0.409l1.046-0.821h0.209v-0.205
			l0.628-0.411l0.836-0.615v-0.206h0.21l0.208-0.204h0.209l0.209-0.205h0.209h0.207l0.209-0.207h0.209h0.209h0.627h0.209h0.207
			h0.209h0.209l0.209,0.207h0.208l0.417,0.205l0.627,0.204l0.835,0.409l0.629,0.205l1.463,0.411l0.417,0.206l0.209,0.206h0.627
			l1.464,0.616h0.417l2.093-0.822l0.417,1.027l-0.626,2.88v0.205v0.204v0.206v0.206v0.206v0.205v0.204v0.204l0.836,1.854l2.3,5.551
			v0.207h0.208v0.205v0.206h0.208v0.206l0.836,1.23l1.254,2.266v0.204h0.208v0.206v0.204l1.045,1.851v0.207v0.204l0.209,0.206
			l3.135,8.228l-0.208,0.822l-2.09,0.822l-0.626,0.205l-4.809,2.263h-0.417l-0.209,0.205l-4.182,1.852l-0.209,0.206v0.205v0.204
			l-0.209,0.206l0.209,1.231l-0.418,0.206l-1.672,0.618l-0.627,0.205h-0.209h-0.208h-0.209L329.243,470.436z"/>
		<path id="Landstraße" class="st8" d="M349.719,459.742l0.208-0.824l-3.135-8.226l-0.209-0.207v-0.203v-0.207l-1.045-1.852
			v-0.206v-0.204h-0.208v-0.204l-1.254-2.265l-0.836-1.231v-0.205h-0.209v-0.207v-0.205h-0.208v-0.206l-2.3-5.552l-0.837-1.853
			v-0.205v-0.204v-0.205v-0.206v-0.205v-0.206v-0.209v-0.205l0.626-2.881l-0.417-1.026l2.51-0.824l4.39-6.581l2.091-2.467
			l0.208-0.205v-0.205l0.209-0.205l0.209-0.207v-0.205l0.209-0.205v-0.205h0.208v-0.203l1.255-2.471l3.973-8.226l0.209-0.206v-0.206
			v-0.206l0.209-0.203v-0.205v-0.207v-0.203l0.209-1.234l0.417-2.879v-0.616v-0.205l0.418-1.028v-0.205l0.208-0.205l2.508-1.646
			l1.465-0.616l1.252-0.412l1.464-0.205h1.465l1.463,0.41l0.835,0.207l0.418,0.205h0.209h0.208v0.203l0.628,0.206l0.626,0.206
			l0.209,0.203l0.626,0.413l0.209,0.205h0.209v0.205h0.208v0.204h0.209l0.209,0.205l0.207,0.205l0.209,0.205l0.209,0.207v0.205
			h0.209v0.204h0.209v0.207v0.204h0.208v0.206l0.209,0.206v0.204l0.209,0.204v0.207l1.462,3.084v0.412l0.209,0.412l0.208,0.407
			l0.208,0.411v0.205l0.209,0.411v0.412l0.21,0.409v0.41l0.208,0.41v0.412l0.208,0.41v0.411v0.41l0.208,0.411l0.209,2.057
			l0.417,3.291v0.204l0.209,0.207v0.204v0.205v0.207l0.209,0.205v0.205v0.205l0.21,0.204v0.205v0.206h0.209v0.206v0.203h0.209v0.207
			l0.209,0.207v0.202l0.209,0.205v0.207l0.207,0.203l0.209,0.207l0.209,0.205v0.205l1.045,0.823l1.043,0.822l1.045,0.617
			l1.045,0.204l2.927,0.821l0.626,0.206l1.673,0.411l1.672,0.616h0.42l1.462,0.824l0.209,0.203l1.045,0.822l1.043,1.027l1.046,1.439
			l0.418,0.821l0.836,1.646l0.417,1.232l0.418,0.617l0.836,1.852v0.207l0.208,0.409l0.208,0.206l0.208,0.204v0.411l0.209,0.205
			l0.208,0.413l0.208,0.204l0.209,0.205l0.209,0.205l0.208,0.41l0.417,0.41l0.209,0.206l0.417,0.411l0.209,0.205l0.418,0.409
			l0.208,0.207l0.208,0.411l0.418,0.204l0.208,0.41l0.418,0.207l0.418,0.407l0.208,0.207l0.419,0.411l0.209,0.206l12.33,10.693
			l2.304,1.852l5.225,3.085l8.569,3.906l1.463,0.618l-0.417,0.822l-0.209,0.204l-0.626-0.204h-0.21h-0.209h-0.209h-0.208h-0.208
			l-0.209,0.204l-0.208,0.205l-0.628,0.617l-0.209,0.617l-0.207,0.205h-0.209l-0.209,0.205h-0.209h-0.207h-0.212h-0.418
			l-0.625-0.205h-0.211l-0.417-0.205h-0.417l-7.105-2.263l-0.836-0.411l-0.417-0.205l-0.627-0.41l-0.628-0.206l-0.417-0.411
			l-0.629-0.617l-0.416-0.41l-0.418,1.232l-0.839,3.085h-0.207l-1.465-0.411l-0.627-0.204l-0.627-0.206h-0.209l-0.417,0.206v0.204
			l-0.208,0.206l-0.209,0.205l-0.21,0.411v0.206l-1.88,0.41l-0.208-0.205h-0.418l-0.627-0.411h-0.627v0.206l-0.209,0.205
			l-2.09,3.289l-1.253,1.851l-2.719-1.025l-0.628-0.206l-2.09-1.026l-4.808-2.059l-0.836-0.408h-0.208v0.205h-0.209v0.203h-0.209
			l-0.208,0.207v0.204h-0.208l-1.045-1.231l-0.21-0.206l-0.627-0.822l-1.462,1.028l-0.837,0.617l-0.628,0.41l2.091,3.291
			l-0.627,1.026l-1.254,1.44l0.627,0.616h0.209v0.204l-1.254,1.439l-0.417-0.206l-0.418-0.204l-1.463,1.852l-1.045,1.646
			l-0.836,1.233l-1.463,1.231l-0.626,0.41l-2.091,1.646l-1.046,6.581l-0.211,1.231l-2.715-0.204v-0.205l-0.836-0.822l-2.509-2.264
			l-3.553-3.7l-2.09-2.265l-7.734-9.255l-1.254-2.055l-0.627-1.44v-0.41l-0.209-0.205v-0.207v-0.204l-0.208-0.205v-0.206
			l-0.208-0.204l-1.254-1.646l-0.836-1.027l-0.209-0.41l-1.043-1.232l-0.211-0.206V462.8l-0.21-0.205v-0.206h-0.209v-0.204
			l-0.626-1.853L349.719,459.742z"/>
		<path id="Leopoldstadt" class="st8" d="M356.207,401.943l-0.836-0.821l-0.208-0.207h-0.209v-0.205h-0.208h-0.209l-1.043,0.205
			l-2.091,0.207l-3.346-0.207l-1.672-0.41l-1.254-0.206l-1.045-0.408l-1.672-0.824l-1.253-1.026l-0.418-0.411l-0.836-1.027
			l-0.627-1.027l-0.627-1.44l-1.465-2.877l-0.209-0.412l-0.628-1.028l-0.835-1.025l-1.672-1.854l-1.881-2.263l-0.209-0.205
			l-0.417-0.411l-0.836-0.617l-0.417-0.617l-0.208-0.203l-0.209-0.205v-0.207h-0.209v-0.204l-0.208-0.411l-0.208-0.205l-0.209-0.205
			l-0.418-0.615v-0.207v-0.205l-0.208-0.205v-0.206v-0.205v-0.205L328,379.129v-0.205v-0.206v-0.204V378.3v-0.207h-0.209v-0.204
			v-0.207v-0.205v-0.205v-0.205v-0.207v-0.204v-0.205l-0.209-0.411v-0.206v-0.206v-0.205v-0.203v-0.207v-0.205V374.6v-0.207v-0.205
			v-0.205v-0.205v-0.206v-0.205v-0.206v-0.205v-0.205v-0.207v-0.204v-0.204v-0.207v-0.205v-0.205v-0.207v-0.205v-0.204v-0.207
			v-0.205l-0.208-0.206v-0.205v-0.206v-0.204v-0.207v-0.205l-0.209-0.205v-0.207v-0.205v-0.203l-0.209-0.207v-0.207v-0.203
			l-0.209-0.206l1.881-0.618l2.091-0.616l1.045-0.409v-1.029l0.207-0.204l2.718-3.909l0.628-0.204l1.466-0.616l1.672-0.822
			l5.435-2.676l2.925,2.06l1.881,1.026l1.467,1.028l2.716,4.937l0.208,0.615v0.207h0.209h0.209h0.208l2.301-1.027l5.434-4.525
			l0.419-0.82l-0.419-2.88l-1.044-1.233l-0.835-1.232h-0.209l1.045-1.027l0.628-0.412l0.418-0.205l7.733-5.965l0.207-0.207
			l4.392-3.289l-0.208-0.205l1.464-1.027l1.881-1.438l1.672-1.233l1.252,1.438l0.837,1.232l0.417,0.411l1.045,1.438l2.089,2.469
			l1.672,2.058l1.674,2.058l1.254,1.646l1.672,1.646l1.881,2.469l3.136,3.496l0.418,0.205l1.462,1.646l0.209,0.413l2.927,3.29
			l1.046,1.231l1.88,1.854l8.778,9.666l2.509,2.673l2.927,3.085l4.808,5.35l3.763,3.699l7.106,7.605l4.181,4.32l6.479,6.787
			l4.807,4.938l6.271,6.373l5.016,4.936l5.646,5.76l0.627,0.412l5.017,5.142l6.271,6.17l5.225,5.141l6.063,5.966l1.463,1.646
			l0.419,0.206l1.254,1.438l9.614,9.256l10.451,9.871l1.672,1.853l8.359,7.813l1.463,1.233l0.209,0.412l0.418,0.204l3.764,3.7
			l6.688,5.966l1.673,1.646l1.464,1.232l1.882,1.646l1.672,1.439l0.417,0.411l3.974,3.291l1.671,1.438l0.417,0.411l-2.507,2.468
			l-2.928,2.879l-1.044-0.409l-2.09-1.232v-0.206h-0.21l-1.882-1.028l-2.09-1.231l-1.882-1.028l-1.882-0.822l-2.923-1.438
			l-0.419-0.206l-2.091-0.821l-1.673-1.029l-1.046-0.614l-1.882-1.234l-4.599-2.468l-2.927-1.853l-2.09-1.438l-0.417-0.206
			l-0.208-0.206l-0.209-0.204h-0.21l-0.208-0.206l-0.418-0.206l-0.209-0.205l-0.208-0.206h-0.21l-0.418-0.203l-0.207-0.204
			l-3.973-2.265l-6.479-3.702l-0.418-0.204l-0.416-0.207l-0.419-0.203l-0.419-0.205l-0.416-0.207l-0.419-0.205l-0.416-0.203
			l-0.418-0.207l-0.417-0.206l-0.417-0.205l-0.209-0.205h-0.209l-7.525-3.291l-2.927-1.438l-0.627-0.206l-1.672-0.616l-7.942-3.291
			l-1.673-0.822l-2.508-1.232h-0.209l-5.227-2.263l-13.795-5.966l-0.836-0.409l-2.51-1.026l-3.553-1.646l-6.271-2.673l-2.302-0.824
			l-1.463-0.617l-8.568-3.906l-5.227-3.085l-2.3-1.853L404.3,444.145l-0.209-0.204l-0.418-0.411l-0.209-0.206l-0.417-0.411
			l-0.418-0.204l-0.208-0.412L402,442.059l-0.209-0.409l-0.209-0.205l-0.417-0.411l-0.209-0.206l-0.417-0.41l-0.208-0.206
			l-0.418-0.41l-0.208-0.41l-0.209-0.206l-0.208-0.205l-0.208-0.204l-0.209-0.411l-0.209-0.206v-0.41l-0.208-0.207l-0.209-0.202
			l-0.208-0.414v-0.203l-0.837-1.851l-0.417-0.618l-0.417-1.232l-0.836-1.646l-0.417-0.822l-1.045-1.438l-1.047-1.028l-1.045-0.822
			l-0.209-0.207l-1.463-0.818h-0.418l-1.672-0.618l-1.672-0.412l-0.627-0.205l-2.926-0.82l-1.047-0.207l-1.045-0.617l-1.044-0.821
			l-1.046-0.823v-0.205l-0.209-0.204l-0.208-0.205l-0.208-0.203v-0.207l-0.209-0.205v-0.207l-0.208-0.205v-0.205h-0.208v-0.205
			v-0.205h-0.209v-0.205v-0.205l-0.209-0.205v-0.207v-0.205l-0.209-0.205v-0.205v-0.205v-0.204l-0.208-0.205v-0.207l-0.417-3.289
			l-0.209-2.06l-0.208-0.407v-0.414v-0.408l-0.209-0.411v-0.412l-0.208-0.408v-0.41l-0.209-0.412v-0.41l-0.208-0.411v-0.206
			l-0.208-0.408l-0.209-0.412l-0.209-0.412v-0.41l-1.463-3.084v-0.207l-0.209-0.204v-0.205l-0.209-0.205v-0.205h-0.209v-0.206
			v-0.206h-0.208v-0.204h-0.209v-0.205l-0.208-0.205l-0.209-0.205l-0.209-0.205l-0.208-0.207h-0.208v-0.205h-0.209v-0.205h-0.209
			l-0.209-0.205l-0.629-0.41l-0.209-0.207l-0.627-0.204l-0.627-0.204v-0.207h-0.208h-0.209l-0.417-0.205l-0.836-0.205l-1.464-0.412
			h-1.463l-1.463,0.205l-1.254,0.412l-1.463,0.617l-2.511,1.646l-0.208,0.205v0.203l-0.419,1.027L356.207,401.943L356.207,401.943z"
			/>
		<path id="Innere_Stadt" class="st8" d="M324.226,430.939l0.209-0.41l-1.672-1.852l-0.209-0.207l-1.462-1.644h-0.209
			l-1.046-0.825l-1.252-1.027l-1.465-1.025l-0.208-0.411l-2.091-2.263l-1.672-1.852l-1.674-1.854l-4.18-4.522l-0.209-0.41
			l-0.209-0.207v-0.204v-0.205h-0.209v-0.205v-0.205v-0.205l-0.417-2.057v-0.617l0.209-1.853l0.417-2.672l1.255-8.021l0.208-1.646
			l5.227,1.027l1.464,0.205l2.718-1.852l12.331-8.432l1.254-1.439l0.418,0.41l0.208,0.204l1.882,2.265l1.672,1.853l0.835,1.024
			l0.628,1.028l0.208,0.413l1.464,2.878l0.629,1.44l0.626,1.026l0.836,1.028l0.418,0.408l1.253,1.029l1.672,0.822l1.045,0.408
			l1.255,0.207l1.672,0.411l3.344,0.206l2.091-0.206l1.044-0.206h0.209h0.209v0.206h0.209l0.207,0.206l0.836,0.822v0.616
			l-0.417,2.88l-0.209,1.23v0.206v0.204v0.207l-0.209,0.203v0.207v0.205l-0.207,0.203l-3.975,8.229l-1.253,2.468v0.206h-0.209v0.203
			l-0.21,0.207v0.206l-0.209,0.203l-0.207,0.207v0.205l-0.209,0.205l-2.091,2.468l-4.389,6.582l-2.508,0.82l-2.091,0.822h-0.418
			l-1.463-0.617h-0.628l-0.207-0.205l-0.418-0.203l-1.463-0.411l-0.627-0.205l-0.835-0.411l-0.628-0.204l-0.417-0.207h-0.209
			l-0.209-0.206h-0.208h-0.208h-0.209h-0.209h-0.627h-0.209h-0.209l-0.208,0.206h-0.209h-0.209l-0.208,0.207h-0.208l-0.208,0.204
			h-0.209v0.205l-0.837,0.618l-0.628,0.408v0.205h-0.209l-1.045,0.823v-0.41h-0.008L324.226,430.939L324.226,430.939z"/>
	</g>
</g>
<g id="Text">
	<text transform="matrix(1.0164 0 0 1 348.2539 56.5576)" class="st10 st1">VIENNA</text>
	<text transform="matrix(1.0164 0 0 1 316.1582 92.9043)" class="st10 st12">selected numbers for</text>
	<text transform="matrix(1.0164 0 0 1 488.3711 629.7354)" class="st10 st0">Data source:Data source: OGD Vienna, Bevölkerungsindikatoren Wien, reference year: 2011</text>
	<text transform="matrix(1.0164 0 0 1 759 642.0742)" class="st10 st0">Mariana Danielová, Prague 2012</text>
	<text transform="matrix(1.0164 0 0 1 926.2002 634.6426)" class="st9 st0"> </text>
</g>
<rect x="752.963" y="383.447" class="st6" width="178.313" height="12.513"/>
<text id="legend_heading2" transform="matrix(1.0164 0 0 1 752.9629 393.2627)" class="st9 st13">Choose a topic, please.</text>
<g id="group" class="novalue">
	<rect id="boxclass1" x="752.963" y="417.813" class="st8" width="37.028" height="18.221"/>
	<rect id="boxclass2" x="752.963" y="446.742" class="st8" width="37.028" height="18.222"/>
	<rect id="boxclass4" x="752.963" y="504.606" class="st8" width="37.028" height="18.222"/>
	<rect id="boxclass3" x="752.963" y="475.674" class="st8" width="37.028" height="18.225"/>
</g>
<rect x="813.2" y="508.189" class="st6" width="89.704" height="11.056"/>
<text id="classmax4" transform="matrix(1.0164 0 0 1 813.2002 516.7793)" class="st9 st2">class 4</text>
<rect x="813.2" y="479.257" class="st6" width="89.704" height="11.059"/>
<text id="classmax3" transform="matrix(1.0164 0 0 1 813.2002 487.8467)" class="st9 st2">class 3</text>
<rect x="813.2" y="450.325" class="st6" width="89.704" height="11.056"/>
<text id="classmax2" transform="matrix(1.0164 0 0 1 813.2002 458.9141)" class="st9 st2">class 2</text>
<rect x="813.2" y="421.393" class="st6" width="89.704" height="11.059"/>
<text id="classmax1" transform="matrix(1.0164 0 0 1 813.2002 429.9824)" class="st9 st2">class 1</text>
<g id="button">

	<g id="button_dependency" onclick="showTopic(5)">
		<rect x="751.316" y="287.73" class="st5" width="12.344" height="12.146"/>
		<ellipse class="st7" cx="757.488" cy="293.802" rx="4.938" ry="4.858"/>
		<ellipse id="bullet_dependency" class="st11" cx="757.488" cy="293.802" rx="2.47" ry="2.429"/>
		<rect x="777.066" y="287.593" class="st6" width="179.556" height="12.418"/>
		<text transform="matrix(1.0164 0 0 1 777.0664 298.6357)" class="st9 st4">dependency ratio</text>
	</g>
	<g id="button_foreign" onclick="showTopic(4)">
		<rect x="751.316" y="248.761" class="st5" width="12.344" height="12.146"/>
		<ellipse class="st7" cx="757.488" cy="254.833" rx="4.938" ry="4.858"/>
		<ellipse id="bullet_foreign" class="st11" cx="757.488" cy="254.833" rx="2.47" ry="2.429"/>
		<rect x="777.066" y="248.624" class="st6" width="179.556" height="12.418"/>
		<text transform="matrix(1.0164 0 0 1 777.0664 259.667)" class="st9 st4">rate foreign nationality</text>
	</g>
	<g id="button_female" onclick="showTopic(3)">
		<rect x="751.316" y="209.792" class="st5" width="12.344" height="12.145"/>
		<ellipse class="st7" cx="757.488" cy="215.864" rx="4.938" ry="4.858"/>
		<ellipse id="bullet_female" class="st11" cx="757.488" cy="215.864" rx="2.47" ry="2.429"/>
		<rect x="777.066" y="209.655" class="st6" width="179.556" height="12.418"/>
		<text transform="matrix(1.0164 0 0 1 777.0664 220.6982)" class="st9 st4">rate females</text>
	</g>
	<g id="button_age" onclick="showTopic(2)">
		<rect x="751.316" y="169.288" class="st5" width="12.344" height="12.146"/>
		<ellipse class="st7" cx="757.488" cy="175.36" rx="4.938" ry="4.859"/>
		<ellipse id="bullet_age" class="st11" cx="757.488" cy="175.36" rx="2.47" ry="2.429"/>
		<rect x="777.066" y="169.152" class="st6" width="179.556" height="12.418"/>
		<text transform="matrix(1.0164 0 0 1 777.0664 180.1953)" class="st9 st4">average age</text>
	</g>
	<g id="button_popdens" onclick="showTopic(1)">
		<rect x="751.316" y="127.328" class="st5" width="12.344" height="12.146"/>
		<ellipse class="st7" cx="757.488" cy="133.4" rx="4.938" ry="4.859"/>
		<ellipse id="bullet_popdens" class="st11" cx="757.488" cy="133.4" rx="2.47" ry="2.429"/>
		<rect x="777.066" y="127.192" class="st6" width="179.556" height="12.417"/>
		<text transform="matrix(1.0164 0 0 1 777.0664 138.2354)" class="st9 st4">population density</text>
	</g>
</g>
<text id="legend_heading1" transform="matrix(1.0164 0 0 1 752.9629 374.2627)" class="st9 st13">Legend</text>
<text id="legend_heading3" transform="matrix(1.0164 0 0 1 750.9629 554.2627)" class="st9 st13">Mean value for Vienna:</text>
<text id="legend_heading4" transform="matrix(1.0164 0 0 1 902.3936 554.2637)" class="st9 st13">...</text>
</svg>
